<?xml version="1.0" encoding="utf-8" ?>
<svg baseProfile="full" height="200mm" version="1.1" viewBox="0,0,200,200" width="200mm" xmlns="http://www.w3.org/2000/svg" xmlns:ev="http://www.w3.org/2001/xml-events" xmlns:xlink="http://www.w3.org/1999/xlink"><defs /><rect fill="#1a1a1a" height="200" width="200" x="0" y="0" /><text alignment-baseline="middle" fill="#e1ed5e" style="dominant-baseline: central; font-size:9.0px; font-family:Arial;" text-anchor="middle" x="100.0" y="100.0">2021</text><line stroke="#e1ed5e" stroke-width="0.3" x1="100.0" x2="100.0" y1="15.0" y2="10.0" /><path d="M 100.0 14.0 a86.0,86.0 0 0,1 42.46469731375804,11.215312516191453" fill="none" id="id1" stroke="none" /><text fill="#e1ed5e" style="font-size:6.75px; font-family:Arial;" text-anchor="middle"><textPath startOffset="22.20632615414155" xlink:href="#id1">January</textPath></text><line stroke="#e1ed5e" stroke-width="0.3" x1="143.23703022742887" x2="145.7803849466894" y1="26.81831364943548" y2="22.513508569990506" /><path d="M 143.74570117128098 25.957352633546492 a86.0,86.0 0 0,1 28.547481713284135,27.462654790039103" fill="none" id="id2" stroke="none" /><text fill="#e1ed5e" style="font-size:6.75px; font-family:Arial;" text-anchor="middle"><textPath startOffset="19.985693538727396" xlink:href="#id2">February</textPath></text><line stroke="#e1ed5e" stroke-width="0.3" x1="172.23445277983987" x2="176.4835382374775" y1="55.19839476539836" y2="52.563006222186495" /><path d="M 173.08426987136738 54.67131705675599 a86.0,86.0 0 0,1 12.851231095245387,41.99856678651699" fill="none" id="id3" stroke="none" /><text fill="#e1ed5e" style="font-size:6.75px; font-family:Arial;" text-anchor="middle"><textPath startOffset="22.20632615414155" xlink:href="#id3">March</textPath></text><line stroke="#e1ed5e" stroke-width="0.3" x1="184.98032266829074" x2="189.97916517819016" y1="98.17113171792111" y2="98.06355123074" /><path d="M 185.9800911702706 98.14961562048488 a86.0,86.0 0 0,1 -9.607161424134198,41.387399972396054" fill="none" id="id4" stroke="none" /><text fill="#e1ed5e" style="font-size:6.75px; font-family:Arial;" text-anchor="middle"><textPath startOffset="21.466115282336823" xlink:href="#id4">April</textPath></text><line stroke="#e1ed5e" stroke-width="0.3" x1="174.80103733775053" x2="179.2010983576182" y1="140.37084112569926" y2="142.7455964860345" /><path d="M 175.68104954172406 140.8457921977663 a86.0,86.0 0 0,1 -30.038265399797805,32.042727171017184" fill="none" id="id5" stroke="none" /><text fill="#e1ed5e" style="font-size:6.75px; font-family:Arial;" text-anchor="middle"><textPath startOffset="22.206326154141568" xlink:href="#id5">May</textPath></text><line stroke="#e1ed5e" stroke-width="0.3" x1="143.8653032363475" x2="146.44561519142675" y1="172.8068346515853" y2="177.08958963109032" /><path d="M 144.38136562736335 173.6633856474863 a86.0,86.0 0 0,1 -40.68145358897372,12.25698825130547" fill="none" id="id6" stroke="none" /><text fill="#e1ed5e" style="font-size:6.75px; font-family:Arial;" text-anchor="middle"><textPath startOffset="21.466115282336833" xlink:href="#id6">June</textPath></text><line stroke="#e1ed5e" stroke-width="0.3" x1="102.19456741930631" x2="102.32365962044197" y1="184.97166512339345" y2="189.96999836594603" /><path d="M 102.22038585953345 185.97133177190398 a86.0,86.0 0 0,1 -42.740103519485714,-10.115201625700543" fill="none" id="id7" stroke="none" /><text fill="#e1ed5e" style="font-size:6.75px; font-family:Arial;" text-anchor="middle"><textPath startOffset="22.20632615414155" xlink:href="#id7">July</textPath></text><line stroke="#e1ed5e" stroke-width="0.3" x1="58.666819895761336" x2="56.23545636021788" y1="174.27360380694188" y2="178.64263932499728" /><path d="M 58.180547188652646 175.14741091055294 a86.0,86.0 0 0,1 -31.652253787137756,-30.449443065178592" fill="none" id="id8" stroke="none" /><text fill="#e1ed5e" style="font-size:6.75px; font-family:Arial;" text-anchor="middle"><textPath startOffset="22.20632615414155" xlink:href="#id8">August</textPath></text><line stroke="#e1ed5e" stroke-width="0.3" x1="26.63291911575756" x2="22.317208475507996" y1="142.92168965132927" y2="145.44649492493687" /><path d="M 25.769776987707644 143.4266507060508 a86.0,86.0 0 0,1 -11.730757126820373,-40.83630448921669" fill="none" id="id9" stroke="none" /><text fill="#e1ed5e" style="font-size:6.75px; font-family:Arial;" text-anchor="middle"><textPath startOffset="21.46611528233685" xlink:href="#id9">September</textPath></text><path d="M 79.97269907076064 106.31721596034903 l -27.381758832431867 8.637034242898165 a49.71165403229943,49.71165403229943 0 0,0 -0.25038867100261664,-0.8182846642281021 l 27.526374275940615 -8.164422606118016" fill="#fff417" stroke="none" /><path d="M 79.86692584326677 105.97154293290107 l -26.70373135190033 7.920423726408385 a48.853588280871776,48.853588280871776 0 0,0 -0.23218799166503526,-0.8082768591888179 l 26.83611198045147 -7.459589391714971" fill="#ffe715" stroke="none" /><path d="M 79.67330655649465 105.27499134158121 l -36.51280808852796 9.475458812773173 a58.722267617711346,58.722267617711346 0 0,0 -0.24548336646536778,-0.9805840219517814 l 36.67050276928839 -8.845546951424" fill="#85ff25" stroke="none" /><path d="M 79.58551787078972 104.9243191809786 l -14.07711365059563 3.3956384650706473 a35.480866317912515,35.480866317912515 0 0,0 -0.13810409205332363,-0.594948814045823 l 14.133478308579507 -3.15282099367625" fill="#ff0000" stroke="none" /><path d="M 79.4281124754447 104.21870165774334 l -17.995643995131644 3.6903883060707146 a39.370143403063054,39.370143403063054 0 0,0 -0.13042778644327238,-0.6650484731239397 l 18.05650171455058 -3.38007610587882" fill="#ff4706" stroke="none" /><path d="M 79.35854240842038 103.8639653848113 l -38.129496591054696 7.137628450629241 a59.79180648263862,59.79180648263862 0 0,0 -0.18066680191858,-1.0132753708075888 l 38.246709835312465 -6.480234329088438" fill="#77ff27" stroke="none" /><path d="M 79.23777060512086 103.15116336523772 l -37.28971953412777 5.659604075317409 a58.71676419343605,58.71676419343605 0 0,0 -0.14306185529484453,-1.0005742827276272 l 37.38161544043921 -5.016884320609382" fill="#85ff25" stroke="none" /><path d="M 79.04373962182676 101.35467743843564 l -38.444591563285954 2.4851772158213903 a59.52483259226334,59.52483259226334 0 0,0 -0.05729590854754438,-1.0230569363307624 l 38.481673822721035 -1.8230485631551905" fill="#7aff26" stroke="none" /><path d="M 79.0235259727143 100.99374915477108 l -38.425306728895855 1.820378202456209 a59.46840228043929,59.46840228043929 0 0,0 -0.03963956165109204,-1.0229209517818758 l 38.450948423398145 -1.1586800036603362" fill="#7bff26" stroke="none" /><line stroke="#e1ed5e" stroke-width="0.3" x1="15.007084014347285" x2="10.007500721073583" y1="101.09737516637583" y2="101.16192664675087" /><path d="M 14.007167355692545 101.11028546245083 a86.0,86.0 0 0,1 10.666146001902534,-42.60595125391555" fill="none" id="id10" stroke="none" /><text fill="#e1ed5e" style="font-size:6.75px; font-family:Arial;" text-anchor="middle"><textPath startOffset="22.20632615414155" xlink:href="#id10">October</textPath></text><path d="M 79.00019446554 99.90962569577889 l -38.263091091101174 -0.16466820271421792 a59.263445420700045,59.263445420700045 0 0,0 0.013170575140860001,-1.0200755591426298 l 38.2545875088426 0.8232800199173196" fill="#7eff26" stroke="none" /><path d="M 79.03285615573316 98.82574320788736 l -42.16631747723254 -2.361508322916252 a63.232393386474904,63.232393386474904 0 0,0 0.07021628776900227,-1.0862148933218394 l 42.11942059845913 3.086982280491103" fill="#49ff2c" stroke="none" /><path d="M 79.05617556472873 98.46500227214037 l -43.850798169862074 -3.2138769957511735 a64.96841486200972,64.96841486200972 0 0,0 0.09134409448713783,-1.1146293188501637 l 43.78897959155544 3.9682202318091155" fill="#34ff2f" stroke="none" /><path d="M 79.08570108090925 98.10471618934814 l -43.98954267613381 -3.9863955466349354 a65.16979979929305,65.16979979929305 0 0,0 0.11085964607354593,-1.1163415069952007 l 43.91440590437803 4.743012584334567" fill="#31ff2f" stroke="none" /><path d="M 79.21141760316559 97.0276538004421 l -18.899124580501454 -2.702192003740422 a40.09132660488508,40.09132660488508 0 0,0 0.10355800916738687,-0.6823178911411649 l 18.849810677894766 3.027109007273679" fill="#ff5407" stroke="none" /><path d="M 79.26566170972629 96.67025291283419 l -43.274500426720984 -6.949493141626931 a64.82896122551611,64.82896122551611 0 0,0 0.18642382323745518,-1.1002839575950514 l 43.14846474196331 7.69336288753781" fill="#35ff2f" stroke="none" /><path d="M 79.3925641242962 95.95851677861259 l -42.4448111450382 -8.32417934537286 a64.25336928970842,64.25336928970842 0 0,0 0.22219642465011857,-1.0835086780480276 l 42.29523542447309 9.05356367958429" fill="#3dff2e" stroke="none" /><path d="M 79.46518482838121 95.60439243477599 l -16.992253947862263 -3.6372998431786145 a38.37718747029645,38.37718747029645 0 0,0 0.14383333642797164,-0.6447766443235411 l 16.927126224432254 3.929254657052115" fill="#ff3505" stroke="none" /><path d="M 80.52162464483688 92.15188598940014 l -22.49398558704012 -9.063146192687295 a45.2511856720448,45.2511856720448 0 0,0 0.29731820311562424,-0.7199796119128063 l 22.334645697038297 9.449000375053414" fill="#ffac10" stroke="none" /><path d="M 80.65960295795068 91.81776055985345 l -25.166093272671617 -10.646885918751611 a48.32560027475552,48.32560027475552 0 0,0 0.33070655771006996,-0.7633163309286896 l 24.97909600511887 11.0785013942669" fill="#ffde14" stroke="none" /><path d="M 80.95270993114464 91.15688171328213 l -20.277127110225315 -9.414096855895258 a43.35591875670538,43.35591875670538 0 0,0 0.320094283413804,-0.6742001950892881 l 20.112074632969758 9.761739466625079" fill="#ff8d0c" stroke="none" /><path d="M 81.10775173730289 90.83032412892265 l -39.12302695307458 -18.989030382554418 a64.48786627141615,64.48786627141615 0 0,0 0.4933014286905876,-0.9944655785790165 l 38.79036551143057 19.659655549632397" fill="#3aff2e" stroke="none" /><line stroke="#e1ed5e" stroke-width="0.3" x1="26.266209847984243" x2="21.928928074336255" y1="57.711370442889674" y2="55.22380399835377" /><path d="M 25.398753493254645 57.213857153982495 a86.0,86.0 0 0,1 29.58750427330803,-30.492523968695096" fill="none" id="id11" stroke="none" /><text fill="#e1ed5e" style="font-size:6.75px; font-family:Arial;" text-anchor="middle"><textPath startOffset="21.46611528233685" xlink:href="#id11">November</textPath></text><path d="M 81.78341655067845 89.55222093294921 l -35.689669561381166 -20.46913920992387 a62.14289942864771,62.14289942864771 0 0,0 0.5401707186220576,-0.9233268570361742 l 35.33203916828879 21.080445479313937" fill="#58ff2a" stroke="none" /><path d="M 81.96595687620814 89.24020034530311 l -37.15561626377234 -22.16846129848491 a64.26638991507295,64.26638991507295 0 0,0 0.5749828269628666,-0.9451205859721139 l 36.76851763852325 22.804749657664097" fill="#3cff2e" stroke="none" /><path d="M 83.17141714833178 87.43820079747576 l -40.1930098950002 -30.002319511771116 a71.15592906632261,71.15592906632261 0 0,0 0.7411196991672104,-0.9752266510294009 l 39.67061425560888 30.689730938681546" fill="#39ff86" stroke="none" /><path d="M 83.39014120810768 87.1503855733568 l -39.790288190656675 -30.7823123351612 a71.30723394299203,71.30723394299203 0 0,0 0.759408185499107,-0.9643712764751974 l 39.254525924563595 31.462676005589447" fill="#39ff88" stroke="none" /><path d="M 83.84228863543731 86.58626213691792 l -13.817611864012335 -11.47104433640134 a38.958598380502295,38.958598380502295 0 0,0 0.4327917864566141,-0.5122889656080633 l 13.618109464068597 11.707192251638517" fill="#ff4006" stroke="none" /><path d="M 84.31358615837235 86.03803664274999 l -38.02684652275499 -33.846451018238916 a71.90798859702875,71.90798859702875 0 0,0 0.8309014630275213,-0.9175021484584001 l 37.43860141911142 34.49600595396687" fill="#3aff91" stroke="none" /><path d="M 85.05521093208273 85.24692304244772 l -39.82377871394129 -39.31291833141854 a76.9592610636501,76.9592610636501 0 0,0 0.9387717871468941,-0.9347404027521939 l 39.14117112662708 39.99259458482084" fill="#42ffd6" stroke="none" /><path d="M 85.57189188830299 84.74124197986013 l -36.28007461610947 -38.36877816787586 a73.80536859303359,73.80536859303359 0 0,0 0.9306228446214299,-0.8649125111340863 l 35.614243887693185 38.98759526508459" fill="#3dffab" stroke="none" /><path d="M 86.37877921826538 84.01681056812374 l -14.350239568455782 -16.838622696946434 a43.123937036662205,43.123937036662205 0 0,0 0.5691178155409908,-0.47661980356340033 l 14.058264215955681 17.083143657903648" fill="#ff890c" stroke="none" /><path d="M 87.22198572758235 83.33499621200491 l -17.8974007238476 -23.341674574742374 a50.41344462355872,50.41344462355872 0 0,0 0.6931940970162379,-0.5220994224518715 l 17.492960473072973 23.6462905867001" fill="#ffff18" stroke="none" /><path d="M 88.09926311788651 82.69761687909137 l -14.275829067117536 -20.755510044013736 a46.1910796263422,46.1910796263422 0 0,0 0.6589824103021837,-0.4449478650701352 l 13.916441962408813 20.99816982138254" fill="#ffbc11" stroke="none" /><path d="M 89.00827224532344 82.1063720568725 l -15.359980389525623 -25.004783637128366 a50.34566752190541,50.34566752190541 0 0,0 0.7423299269702857,-0.44724547501335854 l 14.927288396337689 25.265475721600342" fill="#fffe18" stroke="none" /><line stroke="#e1ed5e" stroke-width="0.3" x1="56.762969772571076" x2="54.21961505331055" y1="26.818313649435495" y2="22.513508569990535" /><path d="M 56.25429882871897 25.957352633546506 a86.0,86.0 0 0,1 42.265352541879196,-11.944610805530505" fill="none" id="id12" stroke="none" /><text fill="#e1ed5e" style="font-size:6.75px; font-family:Arial;" text-anchor="middle"><textPath startOffset="22.20632615414155" xlink:href="#id12">December</textPath></text><path d="M 89.3179101791058 81.91981866633112 l -11.513407865505762 -19.48724504915351 a43.63429434029804,43.63429434029804 0 0,0 0.649949992676915,-0.3764929871276666 l 11.176261140363527 19.682542193671225" fill="#ff910d" stroke="none" /><path d="M 89.63071344664047 81.73862282372117 l -8.797621501922361 -15.493513818334398 a38.81704561732965,38.81704561732965 0 0,0 0.583874744947903,-0.32492566341573675 l 8.529622667902412 15.642654879310319" fill="#ff3d05" stroke="none" /><path d="M 90.26544431104013 81.39251694778311 l -15.68204902254601 -29.976043153361243 a54.83030926074593,54.83030926074593 0 0,0 0.8400512841385566,-0.4303068955046617 l 15.163737250818691 30.24154257417841" fill="#bcff1f" stroke="none" /><path d="M 90.58718382345135 81.22770947309562 l -11.06523906450702 -22.06777212818591 a45.686556711218984,45.686556711218984 0 0,0 0.7060285887689627,-0.34644516226043287 l 10.683739208727632 22.25497245058117" fill="#ffb410" stroke="none" /><path d="M 91.23893434514133 80.91482961587045 l -7.982544638742659 -17.38923443004161 a40.13390950570384,40.13390950570384 0 0,0 0.6303276671817822,-0.2828096506539806 l 7.682034853094102 17.524064411212123" fill="#ff5507" stroke="none" /><path d="M 91.56875222667455 80.76684994638697 l -11.568475989085396 -26.389716038666613 a49.814002660364686,49.814002660364686 0 0,0 0.7882858177864752,-0.3375028482180816 l 11.112506413508612 26.58493841484748" fill="#fff617" stroke="none" /><path d="M 92.57280143429618 80.3572730644239 l -14.76645029440647 -39.05286069503351 a62.75133510156137,62.75133510156137 0 0,0 1.0136362832294177,-0.3733307975418807 l 14.092031685404482 39.30125476038172" fill="#50ff2b" stroke="none" /><path d="M 92.91201910852362 80.23233633223022 l -12.348297023102804 -34.438154695924304 a57.58506441474694,57.58506441474694 0 0,0 0.9359437515203833,-0.32653239716816224 l 11.753671267519136 34.645607946264676" fill="#95ff23" stroke="none" /><path d="M 93.94186890950719 79.89281104454417 l -18.17439327147842 -60.321566866367455 a84.0,84.0 0 0,0 1.3880391291063148,-0.4052066843252047 l 17.133363924648684 60.625471879611354" fill="#4dd2ff" stroke="none" /><path d="M 94.63758080256005 79.69619591428918 l -9.871131630820448 -37.375206106998114 a59.656762296053365,59.656762296053365 0 0,0 0.9951063601018743,-0.25367476815732837 l 9.226316382033573 37.539583871324304" fill="#79ff26" stroke="none" /></svg>