<?xml version="1.0" encoding="utf-8" ?>
<svg baseProfile="full" height="200mm" version="1.1" viewBox="0,0,200,200" width="200mm" xmlns="http://www.w3.org/2000/svg" xmlns:ev="http://www.w3.org/2001/xml-events" xmlns:xlink="http://www.w3.org/1999/xlink"><defs /><rect fill="#1a1a1a" height="200" width="200" x="0" y="0" /><text alignment-baseline="middle" fill="#e1ed5e" style="dominant-baseline: central; font-size:9.0px; font-family:Arial;" text-anchor="middle" x="100.0" y="100.0">2021</text><line stroke="#e1ed5e" stroke-width="0.3" x1="100.0" x2="100.0" y1="15.0" y2="10.0" /><path d="M 100.0 14.0 a86.0,86.0 0 0,1 42.46469731375804,11.215312516191453" fill="none" id="id1" stroke="none" /><text fill="#e1ed5e" style="font-size:6.75px; font-family:Arial;" text-anchor="middle"><textPath startOffset="22.20632615414155" xlink:href="#id1">January</textPath></text><line stroke="#e1ed5e" stroke-width="0.3" x1="143.23703022742887" x2="145.7803849466894" y1="26.81831364943548" y2="22.513508569990506" /><path d="M 143.74570117128098 25.957352633546492 a86.0,86.0 0 0,1 28.547481713284135,27.462654790039103" fill="none" id="id2" stroke="none" /><text fill="#e1ed5e" style="font-size:6.75px; font-family:Arial;" text-anchor="middle"><textPath startOffset="19.985693538727396" xlink:href="#id2">February</textPath></text><line stroke="#e1ed5e" stroke-width="0.3" x1="172.23445277983987" x2="176.4835382374775" y1="55.19839476539836" y2="52.563006222186495" /><path d="M 173.08426987136738 54.67131705675599 a86.0,86.0 0 0,1 12.851231095245387,41.99856678651699" fill="none" id="id3" stroke="none" /><text fill="#e1ed5e" style="font-size:6.75px; font-family:Arial;" text-anchor="middle"><textPath startOffset="22.20632615414155" xlink:href="#id3">March</textPath></text><line stroke="#e1ed5e" stroke-width="0.3" x1="184.98032266829074" x2="189.97916517819016" y1="98.17113171792111" y2="98.06355123074" /><path d="M 185.9800911702706 98.14961562048488 a86.0,86.0 0 0,1 -9.607161424134198,41.387399972396054" fill="none" id="id4" stroke="none" /><text fill="#e1ed5e" style="font-size:6.75px; font-family:Arial;" text-anchor="middle"><textPath startOffset="21.466115282336823" xlink:href="#id4">April</textPath></text><line stroke="#e1ed5e" stroke-width="0.3" x1="174.80103733775053" x2="179.2010983576182" y1="140.37084112569926" y2="142.7455964860345" /><path d="M 175.68104954172406 140.8457921977663 a86.0,86.0 0 0,1 -30.038265399797805,32.042727171017184" fill="none" id="id5" stroke="none" /><text fill="#e1ed5e" style="font-size:6.75px; font-family:Arial;" text-anchor="middle"><textPath startOffset="22.206326154141568" xlink:href="#id5">May</textPath></text><line stroke="#e1ed5e" stroke-width="0.3" x1="143.8653032363475" x2="146.44561519142675" y1="172.8068346515853" y2="177.08958963109032" /><path d="M 144.38136562736335 173.6633856474863 a86.0,86.0 0 0,1 -40.68145358897372,12.25698825130547" fill="none" id="id6" stroke="none" /><text fill="#e1ed5e" style="font-size:6.75px; font-family:Arial;" text-anchor="middle"><textPath startOffset="21.466115282336833" xlink:href="#id6">June</textPath></text><line stroke="#e1ed5e" stroke-width="0.3" x1="102.19456741930631" x2="102.32365962044197" y1="184.97166512339345" y2="189.96999836594603" /><path d="M 102.22038585953345 185.97133177190398 a86.0,86.0 0 0,1 -42.740103519485714,-10.115201625700543" fill="none" id="id7" stroke="none" /><text fill="#e1ed5e" style="font-size:6.75px; font-family:Arial;" text-anchor="middle"><textPath startOffset="22.20632615414155" xlink:href="#id7">July</textPath></text><line stroke="#e1ed5e" stroke-width="0.3" x1="58.666819895761336" x2="56.23545636021788" y1="174.27360380694188" y2="178.64263932499728" /><path d="M 58.180547188652646 175.14741091055294 a86.0,86.0 0 0,1 -31.652253787137756,-30.449443065178592" fill="none" id="id8" stroke="none" /><text fill="#e1ed5e" style="font-size:6.75px; font-family:Arial;" text-anchor="middle"><textPath startOffset="22.20632615414155" xlink:href="#id8">August</textPath></text><line stroke="#e1ed5e" stroke-width="0.3" x1="26.63291911575756" x2="22.317208475507996" y1="142.92168965132927" y2="145.44649492493687" /><path d="M 25.769776987707644 143.4266507060508 a86.0,86.0 0 0,1 -11.730757126820373,-40.83630448921669" fill="none" id="id9" stroke="none" /><text fill="#e1ed5e" style="font-size:6.75px; font-family:Arial;" text-anchor="middle"><textPath startOffset="21.46611528233685" xlink:href="#id9">September</textPath></text><path d="M 79.97269907076064 106.31721596034903 l -39.05498359245038 12.319122110019016 a61.95183161920999,61.95183161920999 0 0,0 -0.3120402466438383,-1.0197655805599088 l 39.26125061160034 -11.64502955690706" fill="#85ff25" stroke="none" /><path d="M 79.86692584326677 105.97154293290107 l -38.0879035633901 11.297010559955375 a60.72796049944985,60.72796049944985 0 0,0 -0.28862369546356764,-1.0047369477802872 l 38.276719895739774 -10.63971613667049" fill="#99ff23" stroke="none" /><path d="M 79.67330655649465 105.27499134158121 l -52.07872618915693 13.514978739257595 a74.80379514316593,74.80379514316593 0 0,0 -0.3127108029219153,-1.2491242125775657 l 52.30364830637391 -12.616526687282636" fill="#3cffa7" stroke="none" /><path d="M 79.58551787078972 104.9243191809786 l -20.078383058501423 4.8432463871587395 a41.65426110541462,41.65426110541462 0 0,0 -0.16213312996845136,-0.6984652804858434 l 20.158776754400428 -4.496912449324322" fill="#ff0000" stroke="none" /><path d="M 79.4281124754447 104.21870165774334 l -25.66743740847654 5.263652186310708 a47.201591124519794,47.201591124519794 0 0,0 -0.15637227896133474,-0.797338881522593 l 25.754239620413543 -4.82104957772016" fill="#ff720a" stroke="none" /><path d="M 79.35854240842038 103.8639653848113 l -54.38463149373146 10.18049876687101 a76.32929330699272,76.32929330699272 0 0,0 -0.2306364387649638,-1.29353163132112 l 54.551814374835615 -9.242848384816675" fill="#3fffbe" stroke="none" /><path d="M 79.23777060512086 103.15116336523772 l -53.1868457933932 8.07237203621429 a74.79594553255146,74.79594553255146 0 0,0 -0.18223835872779842,-1.274574656491946 l 53.3179182031376 -7.155651907741944" fill="#3cffa7" stroke="none" /><path d="M 79.04373962182676 101.35467743843564 l -54.83405583662574 3.54464283986303 a75.94850473267113,75.94850473267113 0 0,0 -0.07310459168013607,-1.3053315933358516 l 54.8869467791934 -2.6002395301917405" fill="#3effb9" stroke="none" /><path d="M 79.0235259727143 100.99374915477108 l -54.80654960902006 2.596430757573339 a75.86801739378643,75.86801739378643 0 0,0 -0.05057097277719069,-1.3050121003130244 l 54.84312271464845 -1.6526414102463176" fill="#3effb7" stroke="none" /><line stroke="#e1ed5e" stroke-width="0.3" x1="15.007084014347285" x2="10.007500721073583" y1="101.09737516637583" y2="101.16192664675087" /><path d="M 14.007167355692545 101.11028546245083 a86.0,86.0 0 0,1 10.666146001902534,-42.60595125391555" fill="none" id="id10" stroke="none" /><text fill="#e1ed5e" style="font-size:6.75px; font-family:Arial;" text-anchor="middle"><textPath startOffset="22.20632615414155" xlink:href="#id10">October</textPath></text><path d="M 79.00019446554 99.90962569577889 l -54.57517918788386 -0.23486854860414766 a75.57568457312061,75.57568457312061 0 0,0 0.01679577057031088,-1.3008509402591255 l 54.563050410195835 1.1742557469237451" fill="#3effb3" stroke="none" /><path d="M 79.03285615573316 98.82574320788736 l -60.142405289058345 -3.368252177273964 a81.23665027774257,81.23665027774257 0 0,0 0.09020907967895861,-1.3954945351496992 l 60.07551561837497 4.403005776676675" fill="#48f8ff" stroke="none" /><path d="M 79.05617556472873 98.46500227214037 l -62.545003537587405 -4.583997474572313 a83.71276186203018,83.71276186203018 0 0,0 0.11769821451771237,-1.436216335761378 l 62.456830839250195 5.6599277275414694" fill="#4cd6ff" stroke="none" /><path d="M 79.08570108090925 98.10471618934814 l -62.742896757272284 -5.685851431955563 a84.0,84.0 0 0,0 0.1428914972710853,-1.4388978771822787 l 62.635728134318974 6.7650248398422725" fill="#4dd2ff" stroke="none" /><path d="M 79.21141760316559 97.0276538004421 l -26.956084337757147 -3.854174051256881 a48.23022475929382,48.23022475929382 0 0,0 0.12458121196616849,-0.8208345304047862 l 26.885747232351676 4.317607694053759" fill="#ff870c" stroke="none" /><path d="M 79.26566170972629 96.67025291283419 l -61.72302204836022 -9.912158758064011 a83.51385720004347,83.51385720004347 0 0,0 0.2401545892179307,-1.4174059799360956 l 61.54325559762207 10.973150526315935" fill="#4cd8ff" stroke="none" /><path d="M 79.3925641242962 95.95851677861259 l -60.53962468220666 -11.872892816844598 a82.69288241363606,82.69288241363606 0 0,0 0.28596263541413397,-1.39445536784218 l 60.326282750877525 12.913223840850181" fill="#4be4ff" stroke="none" /><path d="M 79.46518482838121 95.60439243477599 l -24.23628822362144 -5.187931373053685 a45.78532426235263,45.78532426235263 0 0,0 0.17159819106566407,-0.7692410435234247 l 24.14339564555374 5.604350586127069" fill="#ff5608" stroke="none" /><path d="M 80.52162464483688 92.15188598940014 l -32.083484607648344 -12.926891512613066 a55.58980353728648,55.58980353728648 0 0,0 0.3652470151620169,-0.8844746183481847 l 31.85621590560013 13.477240701414562" fill="#efff19" stroke="none" /><path d="M 80.65960295795068 91.81776055985345 l -35.89474897741529 -15.185801518894076 a59.974883860287534,59.974883860287534 0 0,0 0.4104260946109326,-0.9473200133227017 l 35.628032172961674 15.801420676803376" fill="#a5ff21" stroke="none" /><line stroke="#e1ed5e" stroke-width="0.3" x1="26.266209847984243" x2="21.928928074336255" y1="57.711370442889674" y2="55.22380399835377" /><path d="M 25.398753493254645 57.213857153982495 a86.0,86.0 0 0,1 29.58750427330803,-30.492523968695096" fill="none" id="id11" stroke="none" /><text fill="#e1ed5e" style="font-size:6.75px; font-family:Arial;" text-anchor="middle"><textPath startOffset="21.46611528233685" xlink:href="#id11">November</textPath></text><line stroke="#e1ed5e" stroke-width="0.3" x1="56.762969772571076" x2="54.21961505331055" y1="26.818313649435495" y2="22.513508569990535" /><path d="M 56.25429882871897 25.957352633546506 a86.0,86.0 0 0,1 42.265352541879196,-11.944610805530505" fill="none" id="id12" stroke="none" /><text fill="#e1ed5e" style="font-size:6.75px; font-family:Arial;" text-anchor="middle"><textPath startOffset="22.20632615414155" xlink:href="#id12">December</textPath></text></svg>