<?xml version="1.0" encoding="utf-8" ?>
<svg baseProfile="full" height="200mm" version="1.1" viewBox="0,0,200,200" width="200mm" xmlns="http://www.w3.org/2000/svg" xmlns:ev="http://www.w3.org/2001/xml-events" xmlns:xlink="http://www.w3.org/1999/xlink"><defs /><rect fill="#1a1a1a" height="200" width="200" x="0" y="0" /><text alignment-baseline="middle" fill="#e1ed5e" style="dominant-baseline: central; font-size:9.0px; font-family:Arial;" text-anchor="middle" x="100.0" y="100.0">2021</text><line stroke="#e1ed5e" stroke-width="0.3" x1="100.0" x2="100.0" y1="15.0" y2="10.0" /><path d="M 100.0 14.0 a86.0,86.0 0 0,1 42.46469731375804,11.215312516191453" fill="none" id="id1" stroke="none" /><text fill="#e1ed5e" style="font-size:6.75px; font-family:Arial;" text-anchor="middle"><textPath startOffset="22.20632615414155" xlink:href="#id1">January</textPath></text><line stroke="#e1ed5e" stroke-width="0.3" x1="143.23703022742887" x2="145.7803849466894" y1="26.81831364943548" y2="22.513508569990506" /><path d="M 143.74570117128098 25.957352633546492 a86.0,86.0 0 0,1 28.547481713284135,27.462654790039103" fill="none" id="id2" stroke="none" /><text fill="#e1ed5e" style="font-size:6.75px; font-family:Arial;" text-anchor="middle"><textPath startOffset="19.985693538727396" xlink:href="#id2">February</textPath></text><line stroke="#e1ed5e" stroke-width="0.3" x1="172.23445277983987" x2="176.4835382374775" y1="55.19839476539836" y2="52.563006222186495" /><path d="M 173.08426987136738 54.67131705675599 a86.0,86.0 0 0,1 12.851231095245387,41.99856678651699" fill="none" id="id3" stroke="none" /><text fill="#e1ed5e" style="font-size:6.75px; font-family:Arial;" text-anchor="middle"><textPath startOffset="22.20632615414155" xlink:href="#id3">March</textPath></text><line stroke="#e1ed5e" stroke-width="0.3" x1="184.98032266829074" x2="189.97916517819016" y1="98.17113171792111" y2="98.06355123074" /><path d="M 185.9800911702706 98.14961562048488 a86.0,86.0 0 0,1 -9.607161424134198,41.387399972396054" fill="none" id="id4" stroke="none" /><text fill="#e1ed5e" style="font-size:6.75px; font-family:Arial;" text-anchor="middle"><textPath startOffset="21.466115282336823" xlink:href="#id4">April</textPath></text><line stroke="#e1ed5e" stroke-width="0.3" x1="174.80103733775053" x2="179.2010983576182" y1="140.37084112569926" y2="142.7455964860345" /><path d="M 175.68104954172406 140.8457921977663 a86.0,86.0 0 0,1 -30.038265399797805,32.042727171017184" fill="none" id="id5" stroke="none" /><text fill="#e1ed5e" style="font-size:6.75px; font-family:Arial;" text-anchor="middle"><textPath startOffset="22.206326154141568" xlink:href="#id5">May</textPath></text><line stroke="#e1ed5e" stroke-width="0.3" x1="143.8653032363475" x2="146.44561519142675" y1="172.8068346515853" y2="177.08958963109032" /><path d="M 144.38136562736335 173.6633856474863 a86.0,86.0 0 0,1 -40.68145358897372,12.25698825130547" fill="none" id="id6" stroke="none" /><text fill="#e1ed5e" style="font-size:6.75px; font-family:Arial;" text-anchor="middle"><textPath startOffset="21.466115282336833" xlink:href="#id6">June</textPath></text><line stroke="#e1ed5e" stroke-width="0.3" x1="102.19456741930631" x2="102.32365962044197" y1="184.97166512339345" y2="189.96999836594603" /><path d="M 102.22038585953345 185.97133177190398 a86.0,86.0 0 0,1 -42.740103519485714,-10.115201625700543" fill="none" id="id7" stroke="none" /><text fill="#e1ed5e" style="font-size:6.75px; font-family:Arial;" text-anchor="middle"><textPath startOffset="22.20632615414155" xlink:href="#id7">July</textPath></text><line stroke="#e1ed5e" stroke-width="0.3" x1="58.666819895761336" x2="56.23545636021788" y1="174.27360380694188" y2="178.64263932499728" /><path d="M 58.180547188652646 175.14741091055294 a86.0,86.0 0 0,1 -31.652253787137756,-30.449443065178592" fill="none" id="id8" stroke="none" /><text fill="#e1ed5e" style="font-size:6.75px; font-family:Arial;" text-anchor="middle"><textPath startOffset="22.20632615414155" xlink:href="#id8">August</textPath></text><line stroke="#e1ed5e" stroke-width="0.3" x1="26.63291911575756" x2="22.317208475507996" y1="142.92168965132927" y2="145.44649492493687" /><path d="M 25.769776987707644 143.4266507060508 a86.0,86.0 0 0,1 -11.730757126820373,-40.83630448921669" fill="none" id="id9" stroke="none" /><text fill="#e1ed5e" style="font-size:6.75px; font-family:Arial;" text-anchor="middle"><textPath startOffset="21.46611528233685" xlink:href="#id9">September</textPath></text><path d="M 79.97269907076064 106.31721596034903 l -34.39375640240108 10.848830186817231 a57.06421489357702,57.06421489357702 0 0,0 -0.28742219922368506,-0.9393123772001567 l 34.5754053741309 -10.255190837065028" fill="#bcff1f" stroke="none" /><path d="M 79.86692584326677 105.97154293290107 l -33.54209774372082 9.948708040158204 a55.98641325882991,55.98641325882991 0 0,0 -0.2660883941699369,-0.9262886076233726 l 33.70837877477686 -9.369861957030235" fill="#cdff1d" stroke="none" /><path d="M 79.67330655649465 105.27499134158121 l -45.86311035202839 11.901960871173197 a68.38229166831499,68.38229166831499 0 0,0 -0.2858662624311116,-1.1418936174421785 l 46.06118792875456 -11.110739414333626" fill="#32ff4b" stroke="none" /><path d="M 79.58551787078972 104.9243191809786 l -17.682020381175818 4.2652030832999115 a39.189167163509936,39.189167163509936 0 0,0 -0.1525381116951511,-0.6571301928894248 l 17.752819058801524 -3.9602042330619125" fill="#ff0000" stroke="none" /><path d="M 79.4281124754447 104.21870165774334 l -22.60401896242688 4.635433289951045 a44.07442122869695,44.07442122869695 0 0,0 -0.14601240185424552,-0.7445140913478555 l 22.680461297256794 -4.245655471535235" fill="#ff6008" stroke="none" /><path d="M 79.35854240842038 103.8639653848113 l -47.89380497886908 8.965452355493804 a69.72572104435781,69.72572104435781 0 0,0 -0.21068309812999056,-1.1816227005377862 l 48.041034519338254 -8.139710904222804" fill="#34ff60" stroke="none" /><path d="M 79.23777060512086 103.15116336523772 l -46.838975458785065 7.108931354327299 a68.37537891172173,68.37537891172173 0 0,0 -0.16659481662466027,-1.1651637594578785 l 46.95440432642633 -6.301622122889021" fill="#32ff4a" stroke="none" /><path d="M 79.04373962182676 101.35467743843564 l -48.289590354997195 3.1215883647517675 a69.39037973164079,69.39037973164079 0 0,0 -0.06679203750839638,-1.1926166980653976 l 48.336168743393124 -2.2898999503509323" fill="#34ff5b" stroke="none" /><path d="M 79.0235259727143 100.99374915477108 l -48.26536700614905 2.2865457561974676 a69.31949858735545,69.31949858735545 0 0,0 -0.04620595866891291,-1.1923704816825667 l 48.29757509766916 -1.4553980275009042" fill="#34ff5a" stroke="none" /><line stroke="#e1ed5e" stroke-width="0.3" x1="15.007084014347285" x2="10.007500721073583" y1="101.09737516637583" y2="101.16192664675087" /><path d="M 14.007167355692545 101.11028546245083 a86.0,86.0 0 0,1 10.666146001902534,-42.60595125391555" fill="none" id="id10" stroke="none" /><text fill="#e1ed5e" style="font-size:6.75px; font-family:Arial;" text-anchor="middle"><textPath startOffset="22.20632615414155" xlink:href="#id10">October</textPath></text><path d="M 79.00019446554 99.90962569577889 l -48.061610733036225 -0.2068368977330231 a69.06205580035218,69.06205580035218 0 0,0 0.015348196326484527,-1.1887347197919897 l 48.050929529592025 1.034107875585485" fill="#33ff56" stroke="none" /><path d="M 79.03285615573316 98.82574320788736 l -52.96438627530784 -2.9662499950303878 a74.047383088641,74.047383088641 0 0,0 0.08222577196651992,-1.2719962983339077 l 52.90547991233691 3.877505357617307" fill="#3cffa3" stroke="none" /><path d="M 79.05617556472873 98.46500227214037 l -55.08023350635668 -4.036895627326263 a76.2279698107825,76.2279698107825 0 0,0 0.10717476933595936,-1.3078036496347882 l 55.00258425320122 4.98441319416883" fill="#40ffc3" stroke="none" /><path d="M 79.08570108090925 98.10471618934814 l -55.254508094781905 -5.007242894571996 a76.48092596741299,76.48092596741299 0 0,0 0.13010088124003177,-1.310098119279114 l 55.16013008785965 5.95761654455554" fill="#40ffc7" stroke="none" /><path d="M 79.21141760316559 97.0276538004421 l -23.738865389118175 -3.394176907989003 a44.9802870467682,44.9802870467682 0 0,0 0.11618645160455562,-0.7655235483511161 l 23.676923044074314 3.802299568732211" fill="#ff710a" stroke="none" /><path d="M 79.26566170972629 96.67025291283419 l -54.35635582142974 -8.729138829101489 a76.05280449608,76.05280449608 0 0,0 0.2186993947468897,-1.290776207659086 l 54.198044565162625 9.663500825076403" fill="#3fffc1" stroke="none" /><path d="M 79.3925641242962 95.95851677861259 l -53.314197382356745 -10.455858530006104 a75.32981336360724,75.32981336360724 0 0,0 0.2605001945265338,-1.2702914632724176 l 53.12631789191522 11.372025649441923" fill="#3effb6" stroke="none" /><path d="M 79.46518482838121 95.60439243477599 l -21.343677978724195 -4.568749784641439 a42.82718635679224,42.82718635679224 0 0,0 0.160511426437586,-0.719541251591831 l 21.26187216528457 4.935469205783229" fill="#ff4806" stroke="none" /><path d="M 80.52162464483688 92.15188598940014 l -28.254308480850348 -11.384062079366107 a51.4614972901516,51.4614972901516 0 0,0 0.3381224088764534,-0.8187902327232219 l 28.05416438508769 11.86872688254264" fill="#ffe515" stroke="none" /><path d="M 80.65960295795068 91.81776055985345 l -31.610696994203977 -13.373370314691902 a55.32321660382749,55.32321660382749 0 0,0 0.3785933422550318,-0.873845631986211 l 31.375812942106265 13.915515091264712" fill="#d8ff1c" stroke="none" /><path d="M 80.95270993114464 91.15688171328213 l -25.469750670054875 -11.82488517234212 a49.080885109516,49.080885109516 0 0,0 0.36236138453451633,-0.763225489504196 l 25.262431091678607 12.261553077486848" fill="#ffbc11" stroke="none" /><path d="M 81.10775173730289 90.83032412892265 l -49.141761381480705 -23.851794521022928 a75.62436098983207,75.62436098983207 0 0,0 0.5784903033244314,-1.1662011515452524 l 48.723911065202856 24.69415526106714" fill="#3fffbb" stroke="none" /><line stroke="#e1ed5e" stroke-width="0.3" x1="26.266209847984243" x2="21.928928074336255" y1="57.711370442889674" y2="55.22380399835377" /><path d="M 25.398753493254645 57.213857153982495 a86.0,86.0 0 0,1 29.58750427330803,-30.492523968695096" fill="none" id="id11" stroke="none" /><text fill="#e1ed5e" style="font-size:6.75px; font-family:Arial;" text-anchor="middle"><textPath startOffset="21.46611528233685" xlink:href="#id11">November</textPath></text><path d="M 81.78341655067845 89.55222093294921 l -44.829180203078806 -25.710933766573998 a72.67888846356186,72.67888846356186 0 0,0 0.6317537123463584,-1.0798718803745964 l 44.37996681626212 26.478785059302485" fill="#3aff8f" stroke="none" /><path d="M 81.96595687620814 89.24020034530311 l -46.67053064698187 -27.84542301983418 a75.34616834722007,75.34616834722007 0 0,0 0.6741121281957025,-1.1080630929041246 l 46.18430272049995 28.64465388594538" fill="#3effb7" stroke="none" /><path d="M 83.17141714833178 87.43820079747576 l -50.48574855500465 -37.6853976075727 a84.0,84.0 0 0,0 0.8748962391035646,-1.1512608964758937 l 49.82957637567698 38.54884327992962" fill="#4dd2ff" stroke="none" /><line stroke="#e1ed5e" stroke-width="0.3" x1="56.762969772571076" x2="54.21961505331055" y1="26.818313649435495" y2="22.513508569990535" /><path d="M 56.25429882871897 25.957352633546506 a86.0,86.0 0 0,1 42.265352541879196,-11.944610805530505" fill="none" id="id12" stroke="none" /><text fill="#e1ed5e" style="font-size:6.75px; font-family:Arial;" text-anchor="middle"><textPath startOffset="22.20632615414155" xlink:href="#id12">December</textPath></text></svg>