<?xml version="1.0" encoding="utf-8" ?>
<svg baseProfile="full" height="200mm" version="1.1" viewBox="0,0,200,200" width="200mm" xmlns="http://www.w3.org/2000/svg" xmlns:ev="http://www.w3.org/2001/xml-events" xmlns:xlink="http://www.w3.org/1999/xlink"><defs /><rect fill="#1a1a1a" height="200" width="200" x="0" y="0" /><text alignment-baseline="middle" fill="#e1ed5e" style="dominant-baseline: central; font-size:9.0px; font-family:Arial;" text-anchor="middle" x="100.0" y="100.0">2022</text><line stroke="#e1ed5e" stroke-width="0.3" x1="100.0" x2="100.0" y1="15.0" y2="10.0" /><path d="M 100.0 14.0 a86.0,86.0 0 0,1 42.46469731375804,11.215312516191453" fill="none" id="id13" stroke="none" /><text fill="#e1ed5e" style="font-size:6.75px; font-family:Arial;" text-anchor="middle"><textPath startOffset="22.20632615414155" xlink:href="#id13">January</textPath></text><path d="M 101.44485096284872 79.0497635885617 l 1.2250370656588179 -17.76295050371512 a38.805143257207206,38.805143257207206 0 0,0 0.6659883015760606,0.05169350992187835 l -1.5306155565972197 17.73923173160478" fill="#ff5a08" stroke="none" /><path d="M 102.16513564639614 79.11191278185805 l 3.9449194279718838 -38.05850280890122 a59.262410082851964,59.262410082851964 0 0,0 1.013763377715305,0.11390812752517009 l -4.599449509196914 37.98495872790544" fill="#72ff27" stroke="none" /><path d="M 102.52436894288641 79.15227682838746 l 7.57310682865922 -62.54316951483763 a84.0,84.0 0 0,0 1.4339410859686157,0.1861667073434532 l -8.648562643135682 62.40354448433004" fill="#4dd2ff" stroke="none" /><path d="M 102.88285421437855 79.19881850522331 l 3.436968442394835 -24.799382502762523 a46.036415969390305,46.036415969390305 0 0,0 0.7840023990735032,0.11554157385937726 l -3.863339821896994 24.736546444742174" fill="#ffcf13" stroke="none" /><path d="M 103.59715602781102 79.31037775812273 l 5.095793648903705 -29.309277885989335 a50.74896440399818,50.74896440399818 0 0,0 0.8593609210017603,0.15704271541630124 l -5.599549691008366 29.217219689222294" fill="#e7ff1a" stroke="none" /><path d="M 103.95276090670814 79.375362276772 l 4.199315575487927 -21.911105800243252 a43.309881413669345,43.309881413669345 0 0,0 0.7309750845238019,0.14662672529891116 l -4.575857069478854 21.83557511886713" fill="#ffa40f" stroke="none" /><path d="M 105.01212808612495 79.60689891045804 l 4.817546935462977 -19.601398841039185 a41.184736683961994,41.184736683961994 0 0,0 0.6869831991542696,0.1751273137834249 l -5.154239023302273 19.515568531086892" fill="#ff810b" stroke="none" /><path d="M 105.71112130821622 79.79150937346287 l 8.816111758596334 -31.19532964214753 a53.41716239929567,53.41716239929567 0 0,0 0.8826798997148536,0.2576784674033166 l -9.351781876034615 31.03895284582551" fill="#c1ff1e" stroke="none" /><path d="M 107.08798089147638 80.2323363322302 l 21.197771613485447 -59.11844658970247 a83.80395089926265,83.80395089926265 0 0,0 1.3537038721484322,0.4985805604891948 l -22.212257811406456 58.74480276140695" fill="#4dd4ff" stroke="none" /><path d="M 108.43124777332544 80.76684994638697 l 11.54626530707405 -26.3390495903067 a49.758681747638875,49.758681747638875 0 0,0 0.7814906191377116,0.3506320609023195 l -11.997938044678541 26.13639719888785" fill="#f6ff19" stroke="none" /><path d="M 108.76106565485865 80.91482961587045 l 13.17813449929815 -28.707345906556704 a52.58757568855657,52.58757568855657 0 0,0 0.819419075248917,0.3847282430395976 l -13.670331785846663 28.476252680877103" fill="#cdff1d" stroke="none" /><path d="M 109.08828744355905 81.06846463323043 l 7.004700289622279 -14.591278289793399 a37.185525270365204,37.185525270365204 0 0,0 0.5746557810258662,0.28198109604673643 l -7.254827337658577 14.46854203361183" fill="#ff3e05" stroke="none" /><path d="M 109.73455568895987 81.39251694778311 l 8.248269545996994 -15.766465434197443 a38.79368940920247,38.79368940920247 0 0,0 0.5890266681698287,0.3146376468509895 l -8.518441260695134 15.622149060844698" fill="#ff5908" stroke="none" /><path d="M 110.05341064243156 81.56283822128135 l 8.3790548230323 -15.366525333499629 a38.50253297532865,38.50253297532865 0 0,0 0.5791439369817116,0.3222929739044862 l -8.642322849086046 15.220016962034961" fill="#ff5407" stroke="none" /><line stroke="#e1ed5e" stroke-width="0.3" x1="143.23703022742887" x2="145.7803849466894" y1="26.81831364943548" y2="22.513508569990506" /><path d="M 143.74570117128098 25.957352633546492 a86.0,86.0 0 0,1 28.547481713284135,27.462654790039103" fill="none" id="id14" stroke="none" /><text fill="#e1ed5e" style="font-size:6.75px; font-family:Arial;" text-anchor="middle"><textPath startOffset="19.985693538727396" xlink:href="#id14">February</textPath></text><path d="M 111.60114157652 82.49532879139004 l 34.00101780190709 -51.30328196193023 a82.54750971104289,82.54750971104289 0 0,0 1.1776593522789929,0.7951608516168488 l -34.87908184859263 50.710409198014716" fill="#4be2ff" stroke="none" /><path d="M 112.19680574252982 82.90503203632743 l 10.694518288854422 -14.989371102089585 a39.41341813642432,39.41341813642432 0 0,0 0.5488875586906582,0.3987901544817993 l -10.95095116389887 14.80306171279111" fill="#ff6409" stroke="none" /><path d="M 113.89432698308785 84.25364557470407 l 8.776299675138057 -9.946125882566598 a34.264571461592325,34.264571461592325 0 0,0 0.4388949160904926,0.39404418914618045 l -8.946205578824541 9.793582684651119" fill="#ff0a01" stroke="none" /><path d="M 114.42810811169701 84.74124197986012 l 41.358749413452195 -43.73984062427727 a81.1973405632002,81.1973405632002 0 0,0 1.0072984662296542,0.9690203264313985 l -42.10553112329427 43.021437211083565" fill="#49f2ff" stroke="none" /><path d="M 115.4437574822437 85.77008943001954 l 38.9712581711191 -35.908199103245586 a73.99205342575758,73.99205342575758 0 0,0 0.8549829670303867,0.9440935466492552 l -39.58358477876553 35.232052769326785" fill="#3effb3" stroke="none" /><path d="M 116.82858285166822 87.43820079747576 l 18.859490574433465 -14.077782766743614 a44.534322857366604,44.534322857366604 0 0,0 0.45326903909563004,0.6182584599324478 l -19.09902222604272 13.751061863139672" fill="#ffb811" stroke="none" /><path d="M 117.04232023915458 87.72973835380427 l 31.52158694833256 -22.695156171911957 a59.84173731192727,59.84173731192727 0 0,0 0.5946769231433492,0.841128334694623 l -31.90757649127979 22.14920133688554" fill="#6aff28" stroke="none" /><path d="M 117.2510076193507 88.02491185347247 l 50.36671226748484 -34.96293273775865 a82.3124161182761,82.3124161182761 0 0,0 0.7979425758750296,1.1708822691542997 l -50.961079309028605 34.09077244533395" fill="#4ae5ff" stroke="none" /><path d="M 117.45458315368197 88.32363383020206 l 15.746211519483994 -10.533538949041093 a39.94461981691098,39.94461981691098 0 0,0 0.3773879510011261,0.5747877404738062 l -15.925196105843046 10.260933144589613" fill="#ff6d0a" stroke="none" /><path d="M 117.65298651832404 88.62581576622439 l 14.42534001212884 -9.294544850101977 a38.160390392881,38.160390392881 0 0,0 0.3510254447802649,0.555237954699476 l -14.58319305315506 9.044859247688295" fill="#ff4f07" stroke="none" /><line stroke="#e1ed5e" stroke-width="0.3" x1="172.23445277983987" x2="176.4835382374775" y1="55.19839476539836" y2="52.563006222186495" /><path d="M 173.08426987136738 54.67131705675599 a86.0,86.0 0 0,1 12.851231095245387,41.99856678651699" fill="none" id="id15" stroke="none" /><text fill="#e1ed5e" style="font-size:6.75px; font-family:Arial;" text-anchor="middle"><textPath startOffset="22.20632615414155" xlink:href="#id15">March</textPath></text><path d="M 118.21658344932153 89.55222093294921 l 14.002571994651092 -8.030911997169044 a37.14210549995448,37.14210549995448 0 0,0 0.3133066750298683,0.5573376151798687 l -14.138736310973393 7.7886908720543815" fill="#ff3d05" stroke="none" /><path d="M 118.3937258080291 89.86733742301442 l 11.114062686584548 -6.122470685817728 a33.688854822245716,33.688854822245716 0 0,0 0.27543350093259783,0.5103364461289697 l -11.217804286735612 5.930253256356299" fill="#ff0000" stroke="none" /><line stroke="#e1ed5e" stroke-width="0.3" x1="184.98032266829074" x2="189.97916517819016" y1="98.17113171792111" y2="98.06355123074" /><path d="M 185.9800911702706 98.14961562048488 a86.0,86.0 0 0,1 -9.607161424134198,41.387399972396054" fill="none" id="id16" stroke="none" /><text fill="#e1ed5e" style="font-size:6.75px; font-family:Arial;" text-anchor="middle"><textPath startOffset="21.466115282336823" xlink:href="#id16">April</textPath></text><line stroke="#e1ed5e" stroke-width="0.3" x1="174.80103733775053" x2="179.2010983576182" y1="140.37084112569926" y2="142.7455964860345" /><path d="M 175.68104954172406 140.8457921977663 a86.0,86.0 0 0,1 -30.038265399797805,32.042727171017184" fill="none" id="id17" stroke="none" /><text fill="#e1ed5e" style="font-size:6.75px; font-family:Arial;" text-anchor="middle"><textPath startOffset="22.206326154141568" xlink:href="#id17">May</textPath></text><line stroke="#e1ed5e" stroke-width="0.3" x1="143.8653032363475" x2="146.44561519142675" y1="172.8068346515853" y2="177.08958963109032" /><path d="M 144.38136562736335 173.6633856474863 a86.0,86.0 0 0,1 -40.68145358897372,12.25698825130547" fill="none" id="id18" stroke="none" /><text fill="#e1ed5e" style="font-size:6.75px; font-family:Arial;" text-anchor="middle"><textPath startOffset="21.466115282336833" xlink:href="#id18">June</textPath></text><line stroke="#e1ed5e" stroke-width="0.3" x1="102.19456741930631" x2="102.32365962044197" y1="184.97166512339345" y2="189.96999836594603" /><path d="M 102.22038585953345 185.97133177190398 a86.0,86.0 0 0,1 -42.740103519485714,-10.115201625700543" fill="none" id="id19" stroke="none" /><text fill="#e1ed5e" style="font-size:6.75px; font-family:Arial;" text-anchor="middle"><textPath startOffset="22.20632615414155" xlink:href="#id19">July</textPath></text><line stroke="#e1ed5e" stroke-width="0.3" x1="58.666819895761336" x2="56.23545636021788" y1="174.27360380694188" y2="178.64263932499728" /><path d="M 58.180547188652646 175.14741091055294 a86.0,86.0 0 0,1 -31.652253787137756,-30.449443065178592" fill="none" id="id20" stroke="none" /><text fill="#e1ed5e" style="font-size:6.75px; font-family:Arial;" text-anchor="middle"><textPath startOffset="22.20632615414155" xlink:href="#id20">August</textPath></text><line stroke="#e1ed5e" stroke-width="0.3" x1="26.63291911575756" x2="22.317208475507996" y1="142.92168965132927" y2="145.44649492493687" /><path d="M 25.769776987707644 143.4266507060508 a86.0,86.0 0 0,1 -11.730757126820373,-40.83630448921669" fill="none" id="id21" stroke="none" /><text fill="#e1ed5e" style="font-size:6.75px; font-family:Arial;" text-anchor="middle"><textPath startOffset="21.46611528233685" xlink:href="#id21">September</textPath></text><line stroke="#e1ed5e" stroke-width="0.3" x1="15.007084014347285" x2="10.007500721073583" y1="101.09737516637583" y2="101.16192664675087" /><path d="M 14.007167355692545 101.11028546245083 a86.0,86.0 0 0,1 10.666146001902534,-42.60595125391555" fill="none" id="id22" stroke="none" /><text fill="#e1ed5e" style="font-size:6.75px; font-family:Arial;" text-anchor="middle"><textPath startOffset="22.20632615414155" xlink:href="#id22">October</textPath></text><line stroke="#e1ed5e" stroke-width="0.3" x1="26.266209847984243" x2="21.928928074336255" y1="57.711370442889674" y2="55.22380399835377" /><path d="M 25.398753493254645 57.213857153982495 a86.0,86.0 0 0,1 29.58750427330803,-30.492523968695096" fill="none" id="id23" stroke="none" /><text fill="#e1ed5e" style="font-size:6.75px; font-family:Arial;" text-anchor="middle"><textPath startOffset="21.46611528233685" xlink:href="#id23">November</textPath></text><line stroke="#e1ed5e" stroke-width="0.3" x1="56.762969772571076" x2="54.21961505331055" y1="26.818313649435495" y2="22.513508569990535" /><path d="M 56.25429882871897 25.957352633546506 a86.0,86.0 0 0,1 42.265352541879196,-11.944610805530505" fill="none" id="id24" stroke="none" /><text fill="#e1ed5e" style="font-size:6.75px; font-family:Arial;" text-anchor="middle"><textPath startOffset="22.20632615414155" xlink:href="#id24">December</textPath></text></svg>