<?xml version="1.0" encoding="utf-8" ?>
<svg baseProfile="full" height="200mm" version="1.1" viewBox="0,0,200,200" width="200mm" xmlns="http://www.w3.org/2000/svg" xmlns:ev="http://www.w3.org/2001/xml-events" xmlns:xlink="http://www.w3.org/1999/xlink"><defs /><rect fill="#1a1a1a" height="200" width="200" x="0" y="0" /><text alignment-baseline="middle" fill="#e1ed5e" style="dominant-baseline: central; font-size:9.0px; font-family:Arial;" text-anchor="middle" x="100.0" y="100.0">2025</text><line stroke="#e1ed5e" stroke-width="0.3" x1="100.0" x2="100.0" y1="15.0" y2="10.0" /><path d="M 100.0 14.0 a86.0,86.0 0 0,1 42.46469731375804,11.215312516191453" fill="none" id="id49" stroke="none" /><text fill="#e1ed5e" style="font-size:6.75px; font-family:Arial;" text-anchor="middle"><textPath startOffset="22.20632615414155" xlink:href="#id49">January</textPath></text><path d="M 100.36148047927253 79.00311137660856 l 1.0823397026849069 -62.8685848698793 a83.87790090940715,83.87790090940715 0 0,0 1.4433923468773295,0.03727856589762181 l -2.164358684757104 62.84063951183931" fill="#4dd3ff" stroke="none" /><path d="M 101.08401301168833 79.027996857942 l 2.4368071654438905 -47.14401670389924 a68.20695224370124,68.20695224370124 0 0,0 1.1719836620243613,0.07069725504186233 l -3.247952876307864 47.09508617947708" fill="#33ff55" stroke="none" /><path d="M 101.80526077348638 79.07773832637324 l 2.699951708932365 -31.29137739549129 a52.407642995577206,52.407642995577206 0 0,0 0.8981044696444381,0.08528584107698979 l -3.238181305667047 31.24026600989912" fill="#ecff1a" stroke="none" /><path d="M 102.52436894288641 79.15227682838746 l 7.57310682865922 -62.54316951483763 a84.0,84.0 0 0,0 1.4339410859686157,0.1861667073434532 l -8.648562643135682 62.40354448433004" fill="#4dd2ff" stroke="none" /><line stroke="#e1ed5e" stroke-width="0.3" x1="143.23703022742887" x2="145.7803849466894" y1="26.81831364943548" y2="22.513508569990506" /><path d="M 143.74570117128098 25.957352633546492 a86.0,86.0 0 0,1 28.547481713284135,27.462654790039103" fill="none" id="id50" stroke="none" /><text fill="#e1ed5e" style="font-size:6.75px; font-family:Arial;" text-anchor="middle"><textPath startOffset="19.985693538727396" xlink:href="#id50">February</textPath></text><line stroke="#e1ed5e" stroke-width="0.3" x1="172.23445277983987" x2="176.4835382374775" y1="55.19839476539836" y2="52.563006222186495" /><path d="M 173.08426987136738 54.67131705675599 a86.0,86.0 0 0,1 12.851231095245387,41.99856678651699" fill="none" id="id51" stroke="none" /><text fill="#e1ed5e" style="font-size:6.75px; font-family:Arial;" text-anchor="middle"><textPath startOffset="22.20632615414155" xlink:href="#id51">March</textPath></text><path d="M 120.53481517161879 95.60439243477599 l 30.85579716464928 -6.604879289851347 a52.55478805347116,52.55478805347116 0 0,0 0.1817412243562469,0.8862347540431637 l -30.964917684920525 6.072768879644771" fill="#eaff1a" stroke="none" /><path d="M 120.6074358757038 95.95851677861258 l 18.553143952697194 -3.6386001849563216 a39.90657456641654,39.90657456641654 0 0,0 0.12639794850106748,0.6752228950867961 l -18.61302762510812 3.3186992124069628" fill="#ff3d05" stroke="none" /><path d="M 120.67395015179393 96.31383870115 l 39.03064668497378 -6.959156727324983 a60.6462008646822,60.6462008646822 0 0,0 0.1743957702899428,1.0292937082297646 l -39.14465431678395 6.28627723077938" fill="#73ff27" stroke="none" /><path d="M 120.87857604477298 97.74499172005257 l 46.93399725057539 -5.0691461038394845 a68.20695224370124,68.20695224370124 0 0,0 0.11602611345714144,1.1683671284825417 l -47.014300489714756 4.260503444652508" fill="#33ff55" stroke="none" /><line stroke="#e1ed5e" stroke-width="0.3" x1="184.98032266829074" x2="189.97916517819016" y1="98.17113171792111" y2="98.06355123074" /><path d="M 185.9800911702706 98.14961562048488 a86.0,86.0 0 0,1 -9.607161424134198,41.387399972396054" fill="none" id="id52" stroke="none" /><text fill="#e1ed5e" style="font-size:6.75px; font-family:Arial;" text-anchor="middle"><textPath startOffset="21.466115282336823" xlink:href="#id52">April</textPath></text><path d="M 120.99513854157772 99.54816195383933 l 25.642698280854056 -0.5518585488999554 a46.648635889280925,46.648635889280925 0 0,0 0.010367088174454902,0.8029424040435466 l -25.648398376146226 0.11037988679594615" fill="#ffb410" stroke="none" /><path d="M 120.9764740272857 100.99374915477107 l 31.29427653794883 1.4825494894092395 a52.329374347761274,52.329374347761274 0 0,0 -0.05036988625432246,0.8993881556466001 l -31.26412030080698 -2.021009361391263" fill="#eeff19" stroke="none" /><path d="M 120.95626037817324 101.35467743843564 l 33.165211257441435 2.143901756355446 a54.23443323560105,54.23443323560105 0 0,0 -0.06824096976065712,0.9310938146812651 l -33.123393729016435 -2.7144687075334812" fill="#d0ff1d" stroke="none" /><path d="M 120.32669344350535 105.2749913415812 l 26.09752282494679 6.772582433091093 a47.961983799632264,47.961983799632264 0 0,0 -0.21425742679561996,0.7973315908256711 l -25.977077321809393 -7.220804957092312" fill="#ffca12" stroke="none" /><path d="M 119.9155931802556 106.66101706037122 l 24.23213940376526 8.104739463035294 a46.55158276598917,46.55158276598917 0 0,0 -0.2607091889231145,0.7577429382767994 l -24.089039383898918 -8.520655104401394" fill="#ffb210" stroke="none" /><line stroke="#e1ed5e" stroke-width="0.3" x1="174.80103733775053" x2="179.2010983576182" y1="140.37084112569926" y2="142.7455964860345" /><path d="M 175.68104954172406 140.8457921977663 a86.0,86.0 0 0,1 -30.038265399797805,32.042727171017184" fill="none" id="id53" stroke="none" /><text fill="#e1ed5e" style="font-size:6.75px; font-family:Arial;" text-anchor="middle"><textPath startOffset="22.206326154141568" xlink:href="#id53">May</textPath></text><path d="M 112.63410532772338 116.77436683061366 l 10.216277985027812 13.564204992682276 a37.981165830144604,37.981165830144604 0 0,0 -0.5256141729173757,0.388836799464101 l -9.981278841691871 -13.738051740886146" fill="#ff1902" stroke="none" /><path d="M 112.34349029814194 116.9893568818739 l 18.425065339682877 25.359926817039565 a52.34659345028078,52.34659345028078 0 0,0 -0.7335319967915334,0.523355603228298 l -17.98580601504246 -25.673326682112084" fill="#edff19" stroke="none" /><path d="M 111.45004920935366 117.60387380957326 l 10.07732925121792 15.49338603113091 a39.48235849525419,39.48235849525419 0 0,0 -0.5729044348386154,0.36565471634917396 l -9.809143014332374 -15.664555176303892" fill="#ff3505" stroke="none" /><line stroke="#e1ed5e" stroke-width="0.3" x1="143.8653032363475" x2="146.44561519142675" y1="172.8068346515853" y2="177.08958963109032" /><path d="M 144.38136562736335 173.6633856474863 a86.0,86.0 0 0,1 -40.68145358897372,12.25698825130547" fill="none" id="id54" stroke="none" /><text fill="#e1ed5e" style="font-size:6.75px; font-family:Arial;" text-anchor="middle"><textPath startOffset="21.466115282336833" xlink:href="#id54">June</textPath></text><path d="M 108.2653958097858 119.30500536409082 l 6.520351129674735 15.229205767145041 a37.56634199672017,37.56634199672017 0 0,0 -0.59664034372311,0.24939571206522462 l -6.2572393264541635 -15.33918652223024" fill="#ff1101" stroke="none" /><path d="M 103.41894727170886 120.7198165907248 l 2.553634025432797 15.475766205764236 a36.68503702231278,36.68503702231278 0 0,0 -0.6239323603125676,0.0974454028637475 l -2.2868658015117123 -15.51742991597509" fill="#ff0000" stroke="none" /><path d="M 101.62511606390274 120.93702456842531 l 1.5619624207097726 20.12339075574786 a41.18391889877255,41.18391889877255 0 0,0 -0.7072597529503699,0.048776773443786836 l -1.2153399069804725 -20.14729587370793" fill="#ff5407" stroke="none" /><line stroke="#e1ed5e" stroke-width="0.3" x1="102.19456741930631" x2="102.32365962044197" y1="184.97166512339345" y2="189.96999836594603" /><path d="M 102.22038585953345 185.97133177190398 a86.0,86.0 0 0,1 -42.740103519485714,-10.115201625700543" fill="none" id="id55" stroke="none" /><text fill="#e1ed5e" style="font-size:6.75px; font-family:Arial;" text-anchor="middle"><textPath startOffset="22.20632615414155" xlink:href="#id55">July</textPath></text><path d="M 99.81925306533755 120.99922214144158 l -0.14043074839636469 16.315277969009014 a37.31588232370919,37.31588232370919 0 0,0 -0.642260194238579,-0.011057091695594518 l 0.42125063252761163 -16.31044340003426" fill="#ff0c01" stroke="none" /><path d="M 98.73552117531835 120.96189622390904 l -0.9934607274371049 16.469094036674544 a37.49903095959847,37.49903095959847 0 0,0 -0.6439784285111915,-0.04441252280953761 l 1.2768019167272264 -16.44955316934872" fill="#ff1001" stroke="none" /><path d="M 95.51606077576429 120.51570834832081 l -5.63027055351468 25.760605311891677 a47.3687074491875,47.3687074491875 0 0,0 -0.7950721392925144,-0.180955830370323 l 6.072862842200057 -25.659872747943666" fill="#ffc011" stroke="none" /><path d="M 95.16358092515715 120.4354850818985 l -3.6494859336058876 15.420296338820645 a36.8462704368136,36.8462704368136 0 0,0 -0.6159410574431792,-0.15138332614805883 l 3.9143802757922774 -15.355191754358556" fill="#ff0300" stroke="none" /><path d="M 94.11515582081647 120.15858648285463 l -4.40946581194302 15.104664661754324 a36.73512895691498,36.73512895691498 0 0,0 -0.6054736880549078,-0.18242425543454527 l 4.668814474438174 -15.026525037214054" fill="#ff0100" stroke="none" /><line stroke="#e1ed5e" stroke-width="0.3" x1="58.666819895761336" x2="56.23545636021788" y1="174.27360380694188" y2="178.64263932499728" /><path d="M 58.180547188652646 175.14741091055294 a86.0,86.0 0 0,1 -31.652253787137756,-30.449443065178592" fill="none" id="id56" stroke="none" /><text fill="#e1ed5e" style="font-size:6.75px; font-family:Arial;" text-anchor="middle"><textPath startOffset="22.20632615414155" xlink:href="#id56">August</textPath></text><path d="M 86.79598089348748 116.32954008644616 l -11.252910881435994 13.916585385504568 a38.89690900959101,38.89690900959101 0 0,0 -0.5170137719931465,-0.42546713623196003 l 11.490794781973829 -13.720823130415429" fill="#ff2a04" stroke="none" /><line stroke="#e1ed5e" stroke-width="0.3" x1="26.63291911575756" x2="22.317208475507996" y1="142.92168965132927" y2="145.44649492493687" /><path d="M 25.769776987707644 143.4266507060508 a86.0,86.0 0 0,1 -11.730757126820373,-40.83630448921669" fill="none" id="id57" stroke="none" /><text fill="#e1ed5e" style="font-size:6.75px; font-family:Arial;" text-anchor="middle"><textPath startOffset="21.46611528233685" xlink:href="#id57">September</textPath></text><path d="M 80.0844068197444 106.66101706037122 l -31.06992866393452 10.39172285865746 a53.761690602792825,53.761690602792825 0 0,0 -0.2859808304189928,-0.8801584937282458 l 31.24420174536976 -9.85536546495141" fill="#d7ff1c" stroke="none" /><path d="M 79.10278846688536 102.07522291339032 l -22.153765026881416 2.2000064807114033 a43.2627341847637,43.2627341847637 0 0,0 -0.06721257947311855,-0.7416852137519575 l 22.18835220263161 -1.8183398784108797" fill="#ff790b" stroke="none" /><line stroke="#e1ed5e" stroke-width="0.3" x1="15.007084014347285" x2="10.007500721073583" y1="101.09737516637583" y2="101.16192664675087" /><path d="M 14.007167355692545 101.11028546245083 a86.0,86.0 0 0,1 10.666146001902534,-42.60595125391555" fill="none" id="id58" stroke="none" /><text fill="#e1ed5e" style="font-size:6.75px; font-family:Arial;" text-anchor="middle"><textPath startOffset="22.20632615414155" xlink:href="#id58">October</textPath></text><path d="M 79.00019446554 99.90962569577889 l -37.742357842371774 -0.162427186483782 a58.742707349798735,58.742707349798735 0 0,0 0.013054847480363289,-1.0111123243008031 l 37.7339699877737 0.812075768845057" fill="#8eff24" stroke="none" /><path d="M 79.00486145842228 99.54816195383935 l -17.379442441799466 -0.3740243628644336 a38.3834666799185,38.3834666799185 0 0,0 0.01990147205059617,-0.6604329693701233 l 17.370429275293223 0.6731274796595513" fill="#ff2003" stroke="none" /><path d="M 79.08570108090925 98.10471618934814 l -19.25190160650886 -1.7446349782144628 a40.33079063757889,40.33079063757889 0 0,0 0.06860627452774187,-0.6908558218273237 l 19.21901820629889 2.075766330746217" fill="#ff4406" stroke="none" /><path d="M 79.54389044137918 95.25157060432595 l -15.339794923201724 -3.5607911136868946 a36.74765194056552,36.74765194056552 0 0,0 0.14833312152342737,-0.614936552083569 l 15.276229001417482 3.82431289742986" fill="#ff0100" stroke="none" /><path d="M 80.14247586403 93.16781622104843 l -28.135850925049777 -9.680426571856442 a50.75460915370472,50.75460915370472 0 0,0 0.2913481794372068,-0.8236805366367724 l 27.965049664802763 10.163304734919825" fill="#fff717" stroke="none" /><path d="M 80.2630227832202 92.82701384747504 l -38.58288233688196 -14.02213103289522 a62.05190577945634,62.05190577945634 0 0,0 0.3734798173929818,-1.0007402281303406 l 38.33579793098735 14.684194398054903" fill="#60ff29" stroke="none" /><path d="M 81.26839172434947 90.50648371742162 l -20.043649316475914 -10.158482301576251 a43.47092878795408,43.47092878795408 0 0,0 0.3440218236345908,-0.6645406633148434 l 19.86581805968121 10.50199568715143" fill="#ff7d0b" stroke="none" /><line stroke="#e1ed5e" stroke-width="0.3" x1="26.266209847984243" x2="21.928928074336255" y1="57.711370442889674" y2="55.22380399835377" /><path d="M 25.398753493254645 57.213857153982495 a86.0,86.0 0 0,1 29.58750427330803,-30.492523968695096" fill="none" id="id59" stroke="none" /><text fill="#e1ed5e" style="font-size:6.75px; font-family:Arial;" text-anchor="middle"><textPath startOffset="21.46611528233685" xlink:href="#id59">November</textPath></text><path d="M 85.05521093208273 85.24692304244772 l -11.220288885260358 -11.076354752010136 a36.766436416041344,36.766436416041344 0 0,0 0.4484878459625994,-0.44656189662306794 l 11.027965239130445 11.267852499283313" fill="#ff0200" stroke="none" /><path d="M 86.37877921826538 84.01681056812374 l -12.07044719872244 -14.163506134732266 a39.60915370471599,39.60915370471599 0 0,0 0.5227323055566747,-0.4377732729273891 l 11.824857356206655 14.369180565053467" fill="#ff3705" stroke="none" /><line stroke="#e1ed5e" stroke-width="0.3" x1="56.762969772571076" x2="54.21961505331055" y1="26.818313649435495" y2="22.513508569990535" /><path d="M 56.25429882871897 25.957352633546506 a86.0,86.0 0 0,1 42.265352541879196,-11.944610805530505" fill="none" id="id60" stroke="none" /><text fill="#e1ed5e" style="font-size:6.75px; font-family:Arial;" text-anchor="middle"><textPath startOffset="22.20632615414155" xlink:href="#id60">December</textPath></text></svg>