<?xml version="1.0" encoding="utf-8" ?>
<svg baseProfile="full" height="200mm" version="1.1" viewBox="0,0,200,200" width="200mm" xmlns="http://www.w3.org/2000/svg" xmlns:ev="http://www.w3.org/2001/xml-events" xmlns:xlink="http://www.w3.org/1999/xlink"><defs /><rect fill="#1a1a1a" height="200" width="200" x="0" y="0" /><text alignment-baseline="middle" fill="#e1ed5e" style="dominant-baseline: central; font-size:9.0px; font-family:Arial;" text-anchor="middle" x="100.0" y="100.0">2021</text><line stroke="#e1ed5e" stroke-width="0.3" x1="100.0" x2="100.0" y1="15.0" y2="10.0" /><path d="M 100.0 14.0 a86.0,86.0 0 0,1 42.46469731375804,11.215312516191453" fill="none" id="id1" stroke="none" /><text fill="#e1ed5e" style="font-size:6.75px; font-family:Arial;" text-anchor="middle"><textPath startOffset="22.20632615414155" xlink:href="#id1">January</textPath></text><line stroke="#e1ed5e" stroke-width="0.3" x1="143.23703022742887" x2="145.7803849466894" y1="26.81831364943548" y2="22.513508569990506" /><path d="M 143.74570117128098 25.957352633546492 a86.0,86.0 0 0,1 28.547481713284135,27.462654790039103" fill="none" id="id2" stroke="none" /><text fill="#e1ed5e" style="font-size:6.75px; font-family:Arial;" text-anchor="middle"><textPath startOffset="19.985693538727396" xlink:href="#id2">February</textPath></text><line stroke="#e1ed5e" stroke-width="0.3" x1="172.23445277983987" x2="176.4835382374775" y1="55.19839476539836" y2="52.563006222186495" /><path d="M 173.08426987136738 54.67131705675599 a86.0,86.0 0 0,1 12.851231095245387,41.99856678651699" fill="none" id="id3" stroke="none" /><text fill="#e1ed5e" style="font-size:6.75px; font-family:Arial;" text-anchor="middle"><textPath startOffset="22.20632615414155" xlink:href="#id3">March</textPath></text><line stroke="#e1ed5e" stroke-width="0.3" x1="184.98032266829074" x2="189.97916517819016" y1="98.17113171792111" y2="98.06355123074" /><path d="M 185.9800911702706 98.14961562048488 a86.0,86.0 0 0,1 -9.607161424134198,41.387399972396054" fill="none" id="id4" stroke="none" /><text fill="#e1ed5e" style="font-size:6.75px; font-family:Arial;" text-anchor="middle"><textPath startOffset="21.466115282336823" xlink:href="#id4">April</textPath></text><line stroke="#e1ed5e" stroke-width="0.3" x1="174.80103733775053" x2="179.2010983576182" y1="140.37084112569926" y2="142.7455964860345" /><path d="M 175.68104954172406 140.8457921977663 a86.0,86.0 0 0,1 -30.038265399797805,32.042727171017184" fill="none" id="id5" stroke="none" /><text fill="#e1ed5e" style="font-size:6.75px; font-family:Arial;" text-anchor="middle"><textPath startOffset="22.206326154141568" xlink:href="#id5">May</textPath></text><line stroke="#e1ed5e" stroke-width="0.3" x1="143.8653032363475" x2="146.44561519142675" y1="172.8068346515853" y2="177.08958963109032" /><path d="M 144.38136562736335 173.6633856474863 a86.0,86.0 0 0,1 -40.68145358897372,12.25698825130547" fill="none" id="id6" stroke="none" /><text fill="#e1ed5e" style="font-size:6.75px; font-family:Arial;" text-anchor="middle"><textPath startOffset="21.466115282336833" xlink:href="#id6">June</textPath></text><line stroke="#e1ed5e" stroke-width="0.3" x1="102.19456741930631" x2="102.32365962044197" y1="184.97166512339345" y2="189.96999836594603" /><path d="M 102.22038585953345 185.97133177190398 a86.0,86.0 0 0,1 -42.740103519485714,-10.115201625700543" fill="none" id="id7" stroke="none" /><text fill="#e1ed5e" style="font-size:6.75px; font-family:Arial;" text-anchor="middle"><textPath startOffset="22.20632615414155" xlink:href="#id7">July</textPath></text><line stroke="#e1ed5e" stroke-width="0.3" x1="58.666819895761336" x2="56.23545636021788" y1="174.27360380694188" y2="178.64263932499728" /><path d="M 58.180547188652646 175.14741091055294 a86.0,86.0 0 0,1 -31.652253787137756,-30.449443065178592" fill="none" id="id8" stroke="none" /><text fill="#e1ed5e" style="font-size:6.75px; font-family:Arial;" text-anchor="middle"><textPath startOffset="22.20632615414155" xlink:href="#id8">August</textPath></text><line stroke="#e1ed5e" stroke-width="0.3" x1="26.63291911575756" x2="22.317208475507996" y1="142.92168965132927" y2="145.44649492493687" /><path d="M 25.769776987707644 143.4266507060508 a86.0,86.0 0 0,1 -11.730757126820373,-40.83630448921669" fill="none" id="id9" stroke="none" /><text fill="#e1ed5e" style="font-size:6.75px; font-family:Arial;" text-anchor="middle"><textPath startOffset="21.46611528233685" xlink:href="#id9">September</textPath></text><path d="M 79.97269907076064 106.31721596034903 l -26.955944156921106 8.50271942564987 a49.2651581106912,49.2651581106912 0 0,0 -0.2481397512554094,-0.8109350643726031 l 27.098310680682644 -8.037457388725219" fill="#fff016" stroke="none" /><path d="M 79.86692584326677 105.97154293290107 l -26.28846070511237 7.797252944005114 a48.42043616934336,48.42043616934336 0 0,0 -0.23012933594699395,-0.8011104085640585 l 26.41878267794547 -7.34358505993646" fill="#ffe315" stroke="none" /><path d="M 79.67330655649465 105.27499134158121 l -35.94499615126892 9.32810562613647 a58.13564733362132,58.13564733362132 0 0,0 -0.24303105104879053,-0.9707882408815354 l 36.10023851661277 -8.707989545857542" fill="#8cff24" stroke="none" /><path d="M 79.58551787078972 104.9243191809786 l -13.858199970947094 3.342832774245436 a35.25567386661632,35.25567386661632 0 0,0 -0.13722756331400637,-0.5911727511777327 l 13.913688100191656 -3.1037913657191285" fill="#ff0000" stroke="none" /><path d="M 79.4281124754447 104.21870165774334 l -17.71579311501514 3.632998950307456 a39.08446866974401,39.08446866974401 0 0,0 -0.1294813859506931,-0.6602227974016324 l 17.775704433941495 -3.3275124258378685" fill="#ff4606" stroke="none" /><path d="M 79.35854240842038 103.8639653848113 l -37.536543475162155 7.026630944544234 a59.188553762790825,59.188553762790825 0 0,0 -0.178844014716537,-1.0030522121617307 l 37.65193393221789 -6.379459981649289" fill="#7dff26" stroke="none" /><path d="M 79.23777060512086 103.15116336523772 l -36.709825820196414 5.5715913772435295 a58.13022949328665,58.13022949328665 0 0,0 -0.14163277888794742,-0.9905793256662424 l 36.80029265010096 -4.938866579596886" fill="#8cff24" stroke="none" /><path d="M 79.04373962182676 101.35467743843564 l -37.84673839461826 2.446530139268795 a58.92573159258793,58.92573159258793 0 0,0 -0.05671924105276496,-1.0127601508281638 l 37.883243986558554 -1.7946982721051932" fill="#81ff25" stroke="none" /><path d="M 79.0235259727143 100.99374915477108 l -37.82775345935254 1.7920694382774944 a58.870178830488335,58.870178830488335 0 0,0 -0.039240806775963005,-1.0126308602822536 l 37.85299639897971 -1.1406613309812441" fill="#82ff25" stroke="none" /><line stroke="#e1ed5e" stroke-width="0.3" x1="15.007084014347285" x2="10.007500721073583" y1="101.09737516637583" y2="101.16192664675087" /><path d="M 14.007167355692545 101.11028546245083 a86.0,86.0 0 0,1 10.666146001902534,-42.60595125391555" fill="none" id="id10" stroke="none" /><text fill="#e1ed5e" style="font-size:6.75px; font-family:Arial;" text-anchor="middle"><textPath startOffset="22.20632615414155" xlink:href="#id10">October</textPath></text><path d="M 79.00019446554 99.90962569577889 l -37.668060442533125 -0.16210744181734507 a58.66840926194019,58.66840926194019 0 0,0 0.013038335640020281,-1.0098334640695508 l 37.65968909977539 0.8104771639473677" fill="#84ff25" stroke="none" /><path d="M 79.03285615573316 98.82574320788736 l -41.510587620581234 -2.3247844255803547 a62.57563598108119,62.57563598108119 0 0,0 0.06948699279056147,-1.0749330227989589 l 41.46442003678626 3.0389765126323254" fill="#51ff2b" stroke="none" /><path d="M 79.05617556472873 98.46500227214037 l -43.168872895892044 -3.163897883801055 a64.28466052680561,64.28466052680561 0 0,0 0.09038275164487317,-1.102898501182407 l 43.108015660427675 3.9065103021912404" fill="#3bff2e" stroke="none" /><path d="M 79.08570108090925 98.10471618934814 l -43.305459781563926 -3.924402972069662 a64.48291371998707,64.48291371998707 0 0,0 0.10969119154584715,-1.1045753293597314 l 43.231491464335846 4.6692538321338235" fill="#39ff2e" stroke="none" /><path d="M 79.21141760316559 97.0276538004421 l -18.60522364265696 -2.6601701227399355 a39.794436726733785,39.794436726733785 0 0,0 0.1027911269679949,-0.6772650956186375 l 18.556676622249665 2.980034330750665" fill="#ff5207" stroke="none" /><path d="M 79.26566170972629 96.67025291283419 l -42.60153717882075 -6.841421334217644 a64.14737553862037,64.14737553862037 0 0,0 0.18446383795906976,-1.0887160135336151 l 42.47746147934146 7.573723136067088" fill="#3dff2e" stroke="none" /><path d="M 79.3925641242962 95.95851677861259 l -41.78475042375859 -8.194729745420759 a63.580734652848314,63.580734652848314 0 0,0 0.21987036746341657,-1.0721659971232727 l 41.63750076038018 8.912771398707434" fill="#44ff2d" stroke="none" /><path d="M 79.46518482838121 95.60439243477599 l -16.728006820959838 -3.5807360679318636 a38.10695422891717,38.10695422891717 0 0,0 0.1428205329558201,-0.6402364449486894 l 16.66389190100198 3.8681506824305125" fill="#ff3405" stroke="none" /><path d="M 80.52162464483688 92.15188598940014 l -22.144180841760413 -8.922204893818842 a44.87405464766875,44.87405464766875 0 0,0 0.2948403029934201,-0.7139791802216146 l 21.987318851880794 9.302058644493767" fill="#ffa90f" stroke="none" /><path d="M 80.65960295795068 91.81776055985345 l -24.774734488659412 -10.481315828808247 a47.9006589229111,47.9006589229111 0 0,0 0.3277985567561626,-0.7566042637902456 l 24.59064522206057 10.906219237185093" fill="#ffda14" stroke="none" /><path d="M 80.95270993114464 91.15688171328213 l -19.961796807538402 -9.267697911165243 a43.00826109346367,43.00826109346367 0 0,0 0.3175275466502921,-0.6687939928658467 l 19.799311067046357 9.609934319671622" fill="#ff8a0c" stroke="none" /><path d="M 81.10775173730289 90.83032412892265 l -38.51462341227315 -18.693731316482946 a63.81158496390988,63.81158496390988 0 0,0 0.4881281991440325,-0.9840366634879074 l 38.1871352001757 19.353927568469814" fill="#41ff2d" stroke="none" /><line stroke="#e1ed5e" stroke-width="0.3" x1="26.266209847984243" x2="21.928928074336255" y1="57.711370442889674" y2="55.22380399835377" /><path d="M 25.398753493254645 57.213857153982495 a86.0,86.0 0 0,1 29.58750427330803,-30.492523968695096" fill="none" id="id11" stroke="none" /><text fill="#e1ed5e" style="font-size:6.75px; font-family:Arial;" text-anchor="middle"><textPath startOffset="21.46611528233685" xlink:href="#id11">November</textPath></text><path d="M 81.78341655067845 89.55222093294921 l -35.134658279733124 -20.15082292045547 a61.503084781349344,61.503084781349344 0 0,0 0.5346091960507958,-0.9138204121678588 l 34.782589409212 20.752622744977224" fill="#5fff29" stroke="none" /><path d="M 81.96595687620814 89.24020034530311 l -36.57780799442111 -21.823718792638047 a63.59355279401895,63.59355279401895 0 0,0 0.5689630428975032,-0.9352256437643021 l 36.196729153237385 22.450112209609422" fill="#44ff2d" stroke="none" /><path d="M 83.17141714833178 87.43820079747576 l -39.56796701258429 -29.53575240679963 a70.3759524844304,70.3759524844304 0 0,0 0.7329959065709443,-0.964536692232979 l 39.053695165789236 30.212473874913638" fill="#37ff7c" stroke="none" /><path d="M 83.39014120810768 87.1503855733568 l -39.17150804734771 -30.303615534905177 a70.52490441374695,70.52490441374695 0 0,0 0.7510765280302261,-0.9537909175827816 l 38.644077438723514 30.973398846441007" fill="#38ff7e" stroke="none" /><path d="M 83.84228863543731 86.58626213691792 l -13.602733705592536 -11.292657730494605 a38.67932359801593,38.67932359801593 0 0,0 0.42968931775781594,-0.5086166212376877 l 13.406333774347596 11.525133301361409" fill="#ff3e05" stroke="none" /><path d="M 84.31358615837235 86.03803664274999 l -37.43548972161313 -33.32010369169494 a71.11631671144943,71.11631671144943 0 0,0 0.821753643142697,-0.9074008972613509 l 36.85639243785439 33.959557376225845" fill="#39ff87" stroke="none" /><path d="M 85.05521093208273 85.24692304244772 l -39.204477758350215 -38.70156178324653 a76.08903666581423,76.08903666581423 0 0,0 0.9281565330256318,-0.9241707339056451 l 38.532485425157276 39.37066836780229" fill="#41ffcb" stroke="none" /><path d="M 85.57189188830299 84.74124197986013 l -35.715881925102835 -37.772103975933646 a72.9841904857297,72.9841904857297 0 0,0 0.9202684880112235,-0.8552892651234487 l 35.060405553296754 38.38129782713174" fill="#3cffa1" stroke="none" /><path d="M 86.37877921826538 84.01681056812374 l -14.127078498243371 -16.576764694922993 a42.77988692914579,42.77988692914579 0 0,0 0.5645772967692487,-0.4728172496703958 l 13.839643664515012 16.8174831019872" fill="#ff860c" stroke="none" /><path d="M 87.22198572758235 83.33499621200491 l -17.619077628229483 -22.978687388793265 a49.956035132273605,49.956035132273605 0 0,0 0.686904632734524,-0.5173623283491534 l 17.22092684173657 23.278566306648273" fill="#fffb17" stroke="none" /><path d="M 88.09926311788651 82.69761687909137 l -14.053825157176524 -20.432740391832592 a45.799332278682726,45.799332278682726 0 0,0 0.6533935690480186,-0.44117425450727304 l 13.700026893721967 20.671626558638533" fill="#ffb811" stroke="none" /><path d="M 89.00827224532344 82.1063720568725 l -15.121116804996834 -24.615933384819172 a49.88931203466453,49.88931203466453 0 0,0 0.7356011188684044,-0.4431914434211228 l 14.69515361991078 24.872571437698916" fill="#fffa17" stroke="none" /><line stroke="#e1ed5e" stroke-width="0.3" x1="56.762969772571076" x2="54.21961505331055" y1="26.818313649435495" y2="22.513508569990535" /><path d="M 56.25429882871897 25.957352633546506 a86.0,86.0 0 0,1 42.265352541879196,-11.944610805530505" fill="none" id="id12" stroke="none" /><text fill="#e1ed5e" style="font-size:6.75px; font-family:Arial;" text-anchor="middle"><textPath startOffset="22.20632615414155" xlink:href="#id12">December</textPath></text><path d="M 89.3179101791058 81.91981866633112 l -11.334362462897563 -19.184198229627235 a43.28230764875968,43.28230764875968 0 0,0 0.6447070123320616,-0.3734559145009626 l 11.002458718100181 19.376458301518245" fill="#ff8e0d" stroke="none" /><path d="M 89.63071344664047 81.73862282372117 l -8.660809386673195 -15.252573650851023 a38.539972126743,38.539972126743 0 0,0 0.5797070858415676,-0.3226063656352898 l 8.396978211759581 15.399395414046499" fill="#ff3c05" stroke="none" /><path d="M 90.26544431104013 81.39251694778311 l -15.438176937602732 -29.5098846729452 a54.304212955229175,54.304212955229175 0 0,0 0.8319909999091131,-0.4261781048592028 l 14.927925450104855 29.77125530311691" fill="#c2ff1e" stroke="none" /><path d="M 90.58718382345135 81.22770947309562 l -10.893163150372493 -21.724595443097343 a45.30265521680458,45.30265521680458 0 0,0 0.7000958713606241,-0.34353400359367 l 10.517596012001443 21.908884606825843" fill="#ffb010" stroke="none" /><path d="M 91.23893434514133 80.91482961587045 l -7.858407811890241 -17.118813845976057 a39.83635741939399,39.83635741939399 0 0,0 0.6256544291459486,-0.28071290496892115 l 7.562571264277518 17.251547081461506" fill="#ff5307" stroke="none" /><path d="M 91.56875222667455 80.76684994638697 l -11.388574220189096 -25.97932865483953 a49.36591511171325,49.36591511171325 0 0,0 0.7811950191984373,-0.3344669383163614 l 10.939695443200351 26.171515121118677" fill="#fff116" stroke="none" /><path d="M 92.57280143429618 80.3572730644239 l -14.53681671684713 -38.445548312129674 a62.10205865013945,62.10205865013945 0 0,0 1.0031483761921804,-0.3694680128689778 l 13.87288601488238 38.69007959280497" fill="#57ff2a" stroke="none" /><path d="M 92.91201910852362 80.23233633223022 l -12.156268230424406 -33.902605765091366 a57.01612881686803,57.01612881686803 0 0,0 0.926696705897284,-0.32330628452076327 l 11.570889520463837 34.10683290278433" fill="#9bff22" stroke="none" /><path d="M 93.94186890950719 79.89281104454417 l -17.891762655203575 -59.38350410061555 a83.02028482825568,83.02028482825568 0 0,0 1.3718500458472644,-0.400480646987995 l 16.866922391632887 59.68268307652225" fill="#4bddff" stroke="none" /><path d="M 94.63758080256005 79.69619591428918 l -9.717625322550605 -36.79398298842514 a59.05560965300642,59.05560965300642 0 0,0 0.9850788159398332,-0.2511185238778397 l 9.082837617925772 36.95580450847184" fill="#7fff26" stroke="none" /><path d="M 95.33964822691252 79.52364482259891 l -13.822068969156229 -60.7305214883967 a83.28359198730212,83.28359198730212 0 0,0 1.400581260425965,-0.30611281578623 l 12.774644984576742 60.959447802278795" fill="#4cdaff" stroke="none" /><path d="M 96.04723909329186 79.375362276772 l -7.033528633361816 -36.69940666860312 a58.36732496264392,58.36732496264392 0 0,0 0.9883669297566221,-0.1806177389305988 l 6.4007665825023 36.81503988888445" fill="#89ff25" stroke="none" /><path d="M 96.40284397218896 79.31037775812273 l -6.459014824257982 -37.150064032641694 a58.70737500979566,58.70737500979566 0 0,0 0.9971050500117126,-0.16453087677767747 l 5.818580568107383 37.255741172359" fill="#84ff25" stroke="none" /><path d="M 97.11714578562143 79.19881850522333 l -5.8180553307371445 -41.980071096798085 a63.38131825608709,63.38131825608709 0 0,0 1.081965194407774,-0.14047013484313373 l 5.094575407821513 42.073999554805354" fill="#46ff2c" stroke="none" /><path d="M 98.55514903715128 79.0497635885617 l -4.252703600710136 -61.66390037003497 a82.8103720807527,82.8103720807527 0 0,0 1.4229107141165376,-0.08583386007611137 l 3.1906308377539756 61.72796749949139" fill="#4be0ff" stroke="none" /><path d="M 99.27714615592234 79.0124445844662 l -1.0178384266007128 -29.55222630046235 a50.569749312031774,50.569749312031774 0 0,0 0.8702171650590654,-0.022475141982759905 l 0.5089946263467682 29.56536823458747" fill="#faff18" stroke="none" /><path d="M 99.63851952072746 79.00311137660856 l -1.0844414378176228 -62.990665870174325 a84.0,84.0 0 0,0 1.445921917090143,-0.012445506434235476 l 1.543054966925665e-14 63.0" fill="#4dd2ff" stroke="none" /></svg>