<?xml version="1.0" encoding="utf-8" ?>
<svg baseProfile="full" height="200mm" version="1.1" viewBox="0,0,200,200" width="200mm" xmlns="http://www.w3.org/2000/svg" xmlns:ev="http://www.w3.org/2001/xml-events" xmlns:xlink="http://www.w3.org/1999/xlink"><defs /><rect fill="#1a1a1a" height="200" width="200" x="0" y="0" /><text alignment-baseline="middle" fill="#e1ed5e" style="dominant-baseline: central; font-size:9.0px; font-family:Arial;" text-anchor="middle" x="100.0" y="100.0">2023</text><line stroke="#e1ed5e" stroke-width="0.3" x1="100.0" x2="100.0" y1="15.0" y2="10.0" /><path d="M 100.0 14.0 a86.0,86.0 0 0,1 42.46469731375804,11.215312516191453" fill="none" id="id25" stroke="none" /><text fill="#e1ed5e" style="font-size:6.75px; font-family:Arial;" text-anchor="middle"><textPath startOffset="22.20632615414155" xlink:href="#id25">January</textPath></text><path d="M 100.0 79.0 l 0.0 -11.523314611368242 a32.52331461136824,32.52331461136824 0 0,0 0.5598353977737437,0.004818680014981525 l -0.1983549185012153 11.521607307961819" fill="#ff0601" stroke="none" /><path d="M 100.72285384407766 79.0124445844662 l 0.503520035575385 -14.619351804034395 a35.628020358078174,35.628020358078174 0 0,0 0.6127326750542602,0.026385557905256575 l -0.7550935430189767 14.608518519604942" fill="#ff3c05" stroke="none" /><path d="M 101.08401301168833 79.027996857942 l 1.0785673251209555 -20.86664743638824 a41.89450364831255,41.89450364831255 0 0,0 0.7198631838732621,0.04342411311231843 l -1.4375925578338296 20.844990053895618" fill="#ffa20e" stroke="none" /><path d="M 102.16513564639614 79.11191278185805 l 1.8071980303521549 -17.43489380967109 a38.52830530528882,38.52830530528882 0 0,0 0.6590785772858402,0.07405515752578928 l -2.10704331114772 17.4012026986747" fill="#ff6c09" stroke="none" /><path d="M 104.66035177308747 79.52364482259891 l 4.608385008961503 -20.248026937071995 a41.765832688221636,41.765832688221636 0 0,0 0.6996300301906058,0.16557982400642782 l -4.9562387261146315 20.165701200924698" fill="#ff9f0e" stroke="none" /><path d="M 106.74666289553966 80.11325718540242 l 4.789549478046789 -14.11787429466458 a35.90819099698582,35.90819099698582 0 0,0 0.5836243708954476,0.20361508324049965 l -5.03185585300551 14.033338358251873" fill="#ff4006" stroke="none" /><path d="M 107.4271985657038 80.35727306442388 l 10.996016837857656 -29.081187774137238 a52.09063956648493,52.09063956648493 0 0,0 0.8359724990399937,0.32434434201550805 l -11.494972501897317 28.887600728231185" fill="#c6ff1e" stroke="none" /><path d="M 108.09893153111575 80.62456947434976 l 5.132449239202121 -12.27858431430489 a34.30810534811325,34.30810534811325 0 0,0 0.5429114593628087,0.23244635350627876 l -5.343044456355245 12.188418432835821" fill="#ff2503" stroke="none" /><path d="M 108.76106565485865 80.91482961587045 l 6.880653773573539 -14.988867199052358 a37.492711610363514,37.492711610363514 0 0,0 0.5842110550653086,0.2742949237681696 l -7.137643039938446 14.868207292644184" fill="#ff5b08" stroke="none" /><path d="M 109.41281617654863 81.2277094730956 l 13.982248277934113 -27.885260050720593 a52.194406469784056,52.194406469784056 0 0,0 0.7996668041991726,0.4096203963379997 l -14.460175569722042 27.640447129070093" fill="#c5ff1e" stroke="none" /><path d="M 109.73455568895987 81.39251694778311 l 12.83195075755023 -24.52811549671356 a48.68189679310856,48.68189679310856 0 0,0 0.739164949375247,0.39483631705297245 l -13.252260753453788 24.303600453158833" fill="#f6ff19" stroke="none" /><path d="M 110.05341064243156 81.56283822128135 l 9.942797127877109 -18.234305321811828 a41.76894569532061,41.76894569532061 0 0,0 0.6282763700004808,0.34963511968487465 l -10.255197586949624 18.060454804566774" fill="#ffa00e" stroke="none" /><line stroke="#e1ed5e" stroke-width="0.3" x1="143.23703022742887" x2="145.7803849466894" y1="26.81831364943548" y2="22.513508569990506" /><path d="M 143.74570117128098 25.957352633546492 a86.0,86.0 0 0,1 28.547481713284135,27.462654790039103" fill="none" id="id26" stroke="none" /><text fill="#e1ed5e" style="font-size:6.75px; font-family:Arial;" text-anchor="middle"><textPath startOffset="19.985693538727396" xlink:href="#id26">February</textPath></text><path d="M 110.68208982089419 81.91981866633111 l 5.860519655496593 -9.91933786904249 a32.52123927330226,32.52123927330226 0 0,0 0.47951473012510143,0.28890225957343796 l -6.030396451839332 9.816989000010437" fill="#ff0601" stroke="none" /><path d="M 111.2981086023043 82.29822771554956 l 16.79056780209694 -26.307306667128852 a52.20893383624594,52.20893383624594 0 0,0 0.7533823095728257,0.4900208108384807 l -17.240917137454048 26.014386932130844" fill="#c5ff1e" stroke="none" /><path d="M 111.60114157652 82.49532879139004 l 12.352856875748019 -18.638915547296442 a43.36072999192925,43.36072999192925 0 0,0 0.6186033882232128,0.41768376911433663 l -12.671864958377773 18.423519865883435" fill="#ffb811" stroke="none" /><path d="M 112.48926042617603 83.11751280151076 l 11.360736342404818 -15.356993074151596 a40.1024492283366,40.1024492283366 0 0,0 0.5514160218281601,0.415315115587964 l -11.623398517991362 15.159161369057784" fill="#ff850c" stroke="none" /><path d="M 113.6212207817346 84.01681056812373 l 9.875177539058033 -11.587568824361597 a36.22468005204816,36.22468005204816 0 0,0 0.4711040363929147,0.4085367780236728 l -10.073175374097712 11.415867052918253" fill="#ff4606" stroke="none" /><path d="M 114.68862486808459 84.99185889309783 l 26.456363467455965 -27.031858983464396 a58.82407392156539,58.82407392156539 0 0,0 0.7175534203340985,0.7144720179094578 l -26.917752687957385 26.57245111490482" fill="#6eff28" stroke="none" /><line stroke="#e1ed5e" stroke-width="0.3" x1="172.23445277983987" x2="176.4835382374775" y1="55.19839476539836" y2="52.563006222186495" /><path d="M 173.08426987136738 54.67131705675599 a86.0,86.0 0 0,1 12.851231095245387,41.99856678651699" fill="none" id="id27" stroke="none" /><text fill="#e1ed5e" style="font-size:6.75px; font-family:Arial;" text-anchor="middle"><textPath startOffset="22.20632615414155" xlink:href="#id27">March</textPath></text><path d="M 118.03404312379186 89.2402003453031 l 15.577542265100004 -9.294157318717069 a39.139492365720685,39.139492365720685 0 0,0 0.3402159846430854,0.5815394003867808 l -15.735217924213416 9.024638505976393" fill="#ff760a" stroke="none" /><path d="M 120.45610955862082 95.25157060432595 l 11.972853477271611 -2.77923078377411 a33.291189695781796,33.291189695781796 0 0,0 0.12477159487799791,0.5593265945869103 l -12.018919459151647 2.572726019637236" fill="#ff1402" stroke="none" /><path d="M 120.53481517161879 95.60439243477599 l 23.38641246893433 -5.006010071810807 a44.916195872383184,44.916195872383184 0 0,0 0.15532598900344652,0.7574246852830174 l -23.469117753852775 4.602709730364378" fill="#ffd013" stroke="none" /><line stroke="#e1ed5e" stroke-width="0.3" x1="184.98032266829074" x2="189.97916517819016" y1="98.17113171792111" y2="98.06355123074" /><path d="M 185.9800911702706 98.14961562048488 a86.0,86.0 0 0,1 -9.607161424134198,41.387399972396054" fill="none" id="id28" stroke="none" /><text fill="#e1ed5e" style="font-size:6.75px; font-family:Arial;" text-anchor="middle"><textPath startOffset="21.466115282336823" xlink:href="#id28">April</textPath></text><path d="M 120.99513854157772 99.54816195383933 l 18.578275213014027 -0.3998245382691629 a39.58257704280796,39.58257704280796 0 0,0 0.008796743110536218,0.6813174482620662 l -18.58240496324228 0.07997083194663401" fill="#ff7d0b" stroke="none" /><path d="M 120.89721153311464 102.0752229133903 l 18.78177888965242 1.8651473113660753 a39.87416204107852,39.87416204107852 0 0,0 -0.07370586666708513,0.6824247856821645 l -18.74689072148428 -2.188168418933031" fill="#ff810b" stroke="none" /><path d="M 120.76222939487914 103.15116336523771 l 20.296803634227714 3.0805239084477494 a41.52924414869962,41.52924414869962 0 0,0 -0.11335159130024715,0.7058404672291824 l -20.24077028856618 -3.4294436053701367" fill="#ff9c0e" stroke="none" /><path d="M 120.49622156327973 104.57218783832717 l 16.211504219693573 3.6163759357025493 a37.60996821109153,37.60996821109153 0 0,0 -0.14639131033069142,0.6306499334880691 l -16.14685234343233 -3.894894526539183" fill="#ff5d08" stroke="none" /><path d="M 120.32669344350535 105.2749913415812 l 11.619892763390709 3.015484731313869 a33.0047930426762,33.0047930426762 0 0,0 -0.14744014882261816,0.5486796428506117 l -11.566264538226314 -3.215055307340029" fill="#ff0f01" stroke="none" /><path d="M 119.67450827220406 107.3425965602758 l 18.565583209903036 6.9287417774572235 a40.816365523034605,40.816365523034605 0 0,0 -0.25132331182527345,0.6561258613381268 l -18.443565618484254 -7.247291205628494" fill="#ff910d" stroke="none" /><path d="M 119.41010516605496 108.01547362559984 l 24.814997659216644 10.247443666849499 a47.84761089058357,47.84761089058357 0 0,0 -0.32091852601099474,0.7585565976899227 l -24.63492815201334 -10.673074790205584" fill="#fffb17" stroke="none" /><line stroke="#e1ed5e" stroke-width="0.3" x1="174.80103733775053" x2="179.2010983576182" y1="140.37084112569926" y2="142.7455964860345" /><path d="M 175.68104954172406 140.8457921977663 a86.0,86.0 0 0,1 -30.038265399797805,32.042727171017184" fill="none" id="id29" stroke="none" /><text fill="#e1ed5e" style="font-size:6.75px; font-family:Arial;" text-anchor="middle"><textPath startOffset="22.206326154141568" xlink:href="#id29">May</textPath></text><path d="M 117.75023020441432 111.22182372390056 l 16.549788038497226 10.462895517250647 a40.579776983512595,40.579776983512595 0 0,0 -0.3783487132674132,0.5872056050140027 l -16.367234461852764 -10.746222722186104" fill="#ff8d0d" stroke="none" /><path d="M 117.14729908036423 112.12312394758627 l 34.31719272740166 24.262222232065906 a63.0276711742131,63.0276711742131 0 0,0 -0.6339389424523583,0.8804857451995507 l -33.894473992573694 -24.84934158271659" fill="#3bff2e" stroke="none" /><path d="M 116.71984013943494 112.70617746262583 l 25.08182564490826 19.060835813805483 a52.50259417258248,52.50259417258248 0 0,0 -0.5530102813972195,0.7148403352420302 l -24.750008546292975 -19.489754143160766" fill="#c1ff1e" stroke="none" /><path d="M 115.80600337817218 113.82643327865902 l 25.75957060689842 22.53339922570447 a55.22440004611862,55.22440004611862 0 0,0 -0.6320331349792623,0.7100959272864624 l -25.367878622270823 -22.9734693227318" fill="#9cff22" stroke="none" /><path d="M 115.56566222782051 114.09645910891815 l 24.15955476939388 21.8791960735046 a53.59422199528931,53.59422199528931 0 0,0 -0.6251474851628953,0.6784741270164936 l -23.77936087623526 -22.291821455322427" fill="#b2ff20" stroke="none" /><path d="M 115.07121518719521 114.62390073753431 l 22.712199402718326 22.038100144614244 a52.646830168168265,52.646830168168265 0 0,0 -0.6366740991578754,0.6449475010736576 l -22.329484678504915 -22.425788139668565" fill="#bfff1e" stroke="none" /><path d="M 114.81725581225074 114.88116024355365 l 14.473383603012824 14.535804969013318 a41.512641444171756,41.512641444171756 0 0,0 -0.510704423528969,0.4998317674557619 l -14.22102922710806 -14.782786839391653" fill="#ff9c0e" stroke="none" /><path d="M 114.29624159901734 115.38237550388516 l 19.76768049669604 21.26949814991279 a50.03709255019518,50.03709255019518 0 0,0 -0.6359486926197772,0.5809240525101994 l -19.3986322546094 -21.606614969009573" fill="#e3ff1b" stroke="none" /><path d="M 113.48314897796784 116.09983520530334 l 33.42460928017072 39.91135172441798 a73.05881771613986,73.05881771613986 0 0,0 -0.9710903998944267,0.7991412876152846 l -32.7326487517316 -40.480788130890446" fill="#3dffab" stroke="none" /><path d="M 112.92097659922987 116.55440617244103 l 19.591199592214295 25.100322174889385 a52.84087427733763,52.84087427733763 0 0,0 -0.7218347043550136,0.553472070688586 l -19.156236159365786 -25.433833587405342" fill="#bcff1f" stroke="none" /><path d="M 112.34349029814194 116.9893568818739 l 21.57920149300455 29.70122279317601 a57.71273038723173,57.71273038723173 0 0,0 -0.8087275899136933,0.5770056623541331 l -21.064746575241973 -30.068272717374363" fill="#7cff26" stroke="none" /><path d="M 112.04921762599082 117.19931262002967 l 23.025351732739765 32.86688272467549 a61.12977451287204,61.12977451287204 0 0,0 -0.8670039277721179,0.5963332072855597 l -22.456190920344763 -33.258356721326145" fill="#52ff2b" stroke="none" /><path d="M 111.45004920935366 117.60387380957326 l 17.13575216528723 26.345355660429163 a52.4278820022071,52.4278820022071 0 0,0 -0.7607490345813673,0.48554602746462855 l -16.679721328658932 -26.6364161167176" fill="#c2ff1e" stroke="none" /><path d="M 111.1453310114006 117.79835938074945 l 22.1219574751841 35.32730871305938 a62.682127386227,62.682127386227 0 0,0 -0.919399953688123,0.5647705440574723 l -21.510578321563667 -35.70286772394523" fill="#3fff2d" stroke="none" /><line stroke="#e1ed5e" stroke-width="0.3" x1="143.8653032363475" x2="146.44561519142675" y1="172.8068346515853" y2="177.08958963109032" /><path d="M 144.38136562736335 173.6633856474863 a86.0,86.0 0 0,1 -40.68145358897372,12.25698825130547" fill="none" id="id30" stroke="none" /><text fill="#e1ed5e" style="font-size:6.75px; font-family:Arial;" text-anchor="middle"><textPath startOffset="21.466115282336833" xlink:href="#id30">June</textPath></text><path d="M 110.8373102113329 117.98757091392108 l 16.450620280276727 27.304441148139052 a52.87719269349233,52.87719269349233 0 0,0 -0.7836705360018141,0.46300636597989936 l -15.97818187324653 -27.583566086412702" fill="#bcff1f" stroke="none" /><path d="M 109.89434966115114 118.52300852407294 l 10.065141393480069 18.842744213846586 a42.36249238219162,42.36249238219162 0 0,0 -0.6461472238889525,0.33803368873494566 l -9.73930326706462 -19.01320732152625" fill="#ffa90f" stroke="none" /><path d="M 109.2508944713604 118.85261126421891 l 15.718277335605153 32.03264000781207 a56.68128736843839,56.68128736843839 0 0,0 -0.8796054054672617,0.42226404815674723 l -15.164559262137658 -32.29845833246838" fill="#89ff24" stroke="none" /><path d="M 108.2653958097858 119.30500536409082 l 14.537991661347752 33.95554350502413 a57.93686689835784,57.93686689835784 0 0,0 -0.9201713646618642,0.3846317050567666 l -13.951348837188426 -34.20076025310087" fill="#79ff26" stroke="none" /><path d="M 107.93186726928326 119.44442032107085 l 15.88986359583361 38.95289420668659 a63.06917793553275,63.06917793553275 0 0,0 -1.008743219995753,0.40139974532376593 l -15.216999299795992 -39.22064079641642" fill="#3bff2e" stroke="none" /><path d="M 105.88484417918355 120.15858648285463 l 11.251991114596915 38.54379641694826 a61.152603231597844,61.152603231597844 0 0,0 -1.0130040311208788,0.28628505781853164 l -10.586855915371432 -38.73177026810531" fill="#51ff2b" stroke="none" /><path d="M 105.53697534728816 120.25689768951611 l 8.812576018454937 32.24060783914387 a54.423319552649346,54.423319552649346 0 0,0 -0.9057843008368974,0.23922586639642557 l -8.256301274806543 -32.38752505484388" fill="#a7ff21" stroke="none" /><path d="M 104.83641907484287 120.43548508189849 l 4.475637331394785 18.91106177987227 a40.43346564986082,40.43346564986082 0 0,0 -0.6786658062757993,0.1544621279622062 l -4.149451375726124 -18.985300641412163" fill="#ff8a0c" stroke="none" /><path d="M 104.48393922423573 120.51570834832081 l 6.809327698109299 31.155235188622385 a52.89068239092122,52.89068239092122 0 0,0 -0.8911035733683222,0.1867394178370882 l -6.272032663311599 -31.267830587186012" fill="#bbff1f" stroke="none" /><path d="M 103.7750983002368 120.6578951692458 l 4.186104176483499 22.906979995703306 a44.28633076935746,44.28633076935746 0 0,0 -0.7510772501540791,0.1305844073013103 l -3.7911779548573703 -22.975642981525624" fill="#ffc612" stroke="none" /><path d="M 103.41894727170886 120.7198165907248 l 6.775499445546532 41.0615007092851 a62.61675423714855,62.61675423714855 0 0,0 -1.064974235749947,0.16632707332278251 l -6.067689346188068 -41.17204608995498" fill="#40ff2d" stroke="none" /><path d="M 102.70371172650421 120.8252237178851 l 5.371040265214139 41.37020749082409 a62.71740813334871,62.71740813334871 0 0,0 -1.071788470302532,0.1297786576262402 l -4.658124371860227 -41.45653167717568" fill="#3fff2d" stroke="none" /><path d="M 101.62511606390274 120.93702456842531 l 2.56860577813928 33.09238243227417 a54.19191935829229,54.19191935829229 0 0,0 -0.9306487707364463,0.06418298801336679 l -1.998594246623903 -33.13169376480382" fill="#aaff21" stroke="none" /><path d="M 101.26447882468166 120.96189622390904 l 1.8863150750484772 31.27038593051638 a52.32722810600695,52.32722810600695 0 0,0 -0.8995596996722871,0.04649696133602047 l -1.3477673069627105 -31.2982226986146" fill="#c3ff1e" stroke="none" /><line stroke="#e1ed5e" stroke-width="0.3" x1="102.19456741930631" x2="102.32365962044197" y1="184.97166512339345" y2="189.96999836594603" /><path d="M 102.22038585953345 185.97133177190398 a86.0,86.0 0 0,1 -42.740103519485714,-10.115201625700543" fill="none" id="id31" stroke="none" /><text fill="#e1ed5e" style="font-size:6.75px; font-family:Arial;" text-anchor="middle"><textPath startOffset="22.20632615414155" xlink:href="#id31">July</textPath></text><path d="M 93.08242187328487 119.8279376855182 l -11.355843749727235 32.54939201431087 a55.47344061403653,55.47344061403653 0 0,0 -0.8988822259773864,-0.3223071855377367 l 11.914445536334348 -32.34909728773317" fill="#99ff23" stroke="none" /><path d="M 91.40352486487194 119.15986991738527 l -9.342948162525728 20.82361300707702 a43.823530380643355,43.823530380643355 0 0,0 -0.6855920127857212,-0.3147216669051677 l 9.700008171078869 -20.659704269837782" fill="#ffbf11" stroke="none" /><path d="M 90.7491055286396 118.85261126421891 l -10.253037882790187 20.894902442134143 a44.27491640999456,44.27491640999456 0 0,0 -0.6812983916934364,-0.34161715711769475 l 10.611190182166384 -20.715317444107146" fill="#ffc612" stroke="none" /><path d="M 90.42595943632237 118.69057910512821 l -6.866286861523091 13.404463548095016 a36.06072834483554,36.06072834483554 0 0,0 -0.5500275881129281,-0.2877484381914673 l 7.096005352162514 -13.284285690958832" fill="#ff4306" stroke="none" /><line stroke="#e1ed5e" stroke-width="0.3" x1="58.666819895761336" x2="56.23545636021788" y1="174.27360380694188" y2="178.64263932499728" /><path d="M 58.180547188652646 175.14741091055294 a86.0,86.0 0 0,1 -31.652253787137756,-30.449443065178592" fill="none" id="id32" stroke="none" /><text fill="#e1ed5e" style="font-size:6.75px; font-family:Arial;" text-anchor="middle"><textPath startOffset="22.20632615414155" xlink:href="#id32">August</textPath></text><path d="M 89.7882731507175 118.34994917583269 l -19.12396591773458 34.36478548732853 a60.32765635036977,60.32765635036977 0 0,0 -0.9030511029758286,-0.5127759844557287 l 19.712665787631614 -34.03050633707817" fill="#5bff2a" stroke="none" /><path d="M 89.1626897886671 117.98757091392108 l -16.499886460803587 27.386212260952487 a52.97265824452752,52.97265824452752 0 0,0 -0.7769847892472262,-0.4772875182201623 l 16.968850449983123 -27.098136275903947" fill="#baff1f" stroke="none" /><path d="M 88.24862548938628 117.40417183066458 l -23.30570886093548 34.51652070868941 a62.64788430813829,62.64788430813829 0 0,0 -0.8885352873390787,-0.6111426727291275 l 23.896401032897447 -34.11023724659518" fill="#3fff2d" stroke="none" /><path d="M 87.65650970185807 116.9893568818739 l -30.650639135894785 42.18698555753179 a73.14598191491115,73.14598191491115 0 0,0 -1.0122534141888127,-0.7488408762555641 l 31.372277520502163 -41.65313473253646" fill="#3dffac" stroke="none" /><path d="M 87.07902340077011 116.55440617244103 l -25.666801851282614 32.88440774817429 a62.71533279528272,62.71533279528272 0 0,0 -0.8452907161639105,-0.6715500675019473 l 26.229050060163882 -32.43772376666721" fill="#3fff2d" stroke="none" /><path d="M 86.24171649860922 115.8653595955263 l -27.47215108582353 31.67950099263177 a62.9322056231779,62.9322056231779 0 0,0 -0.8122978848865434,-0.7167584391567614 l 28.013391323616663 -31.20191941170272" fill="#3cff2e" stroke="none" /><path d="M 85.97065885151581 115.62618273729859 l -26.31220690619139 29.307103518698053 a60.38576581621728,60.38576581621728 0 0,0 -0.7674756239113047,-0.7010707857715642 l 26.812782079569548 -28.849839966339914" fill="#5bff2a" stroke="none" /><path d="M 85.18274418774928 114.88116024355367 l -29.5141929593813 29.641482907016204 a62.829476388911765,62.829476388911765 0 0,0 -0.7598159310388649,-0.7696895266316635 l 30.0200495154757 -29.129052886403876" fill="#3dff2e" stroke="none" /><path d="M 84.67929136418377 114.36230785411682 l -30.5177675222946 28.608700980769726 a62.830514057944754,62.830514057944754 0 0,0 -0.7328838145699245,-0.7954006344043391 l 31.005697744860253 -28.07914909156404" fill="#3dff2e" stroke="none" /><path d="M 84.43433777217949 114.09645910891817 l -31.746382576381897 28.749922572789885 a63.829789336715365,63.829789336715365 0 0,0 -0.7305202378995429,-0.8207472314720144 l 32.23656166392978 -28.199201171577005" fill="#32ff2f" stroke="none" /><path d="M 83.95833913139862 113.55231037782056 l -16.86391719958631 14.246968686515203 a43.07640867688963,43.07640867688963 0 0,0 -0.4736435749387901,-0.5705341979735216 l 17.106656774418635 -13.954573231427919" fill="#ffb410" stroke="none" /><path d="M 83.72743513129214 113.27417163493432 l -29.943684995504114 24.426242403683936 a59.64279478859552,59.64279478859552 0 0,0 -0.6421032179375779,-0.801122492260306 l 30.359706125496555 -23.90719207784537" fill="#64ff29" stroke="none" /><path d="M 83.28015986056508 112.70617746262583 l -31.898589813561298 24.241209222010948 a61.064401363793586,61.064401363793586 0 0,0 -0.6287851809966498,-0.8423605045507262 l 32.31113626125303 -23.688535837950916" fill="#52ff2b" stroke="none" /><path d="M 82.85270091963577 112.12312394758628 l -42.63764190480237 30.144771793047795 a73.21758107818754,73.21758107818754 0 0,0 -0.7187145592019282,-1.0353619267951735 l 43.150217371166434 -29.40636860406561" fill="#3dffad" stroke="none" /><path d="M 82.44556493220864 111.52570212397912 l -33.68341982207143 22.11549741628763 a61.29476388911765,61.29476388911765 0 0,0 -0.5714865080924532,-0.8869597516103646 l 34.05911119354093 -21.532416064755818" fill="#50ff2b" stroke="none" /><path d="M 82.24976979558568 111.22182372390057 l -35.314225226244815 22.32590822041779 a62.779668275328184,62.779668275328184 0 0,0 -0.5696069864936121,-0.9183878290405979 l 35.693296852406384 -21.71472406001193" fill="#3eff2d" stroke="none" /><line stroke="#e1ed5e" stroke-width="0.3" x1="26.63291911575756" x2="22.317208475507996" y1="142.92168965132927" y2="145.44649492493687" /><path d="M 25.769776987707644 143.4266507060508 a86.0,86.0 0 0,1 -11.730757126820373,-40.83630448921669" fill="none" id="id33" stroke="none" /><text fill="#e1ed5e" style="font-size:6.75px; font-family:Arial;" text-anchor="middle"><textPath startOffset="21.46611528233685" xlink:href="#id33">September</textPath></text><path d="M 81.51974371655577 109.97397251340807 l -27.757367462381424 14.980918871908738 a52.542025595836144,52.542025595836144 0 0,0 -0.42270683034287393,-0.7996020217804604 l 28.011126800949185 -14.500901835042152" fill="#c0ff1e" stroke="none" /><path d="M 81.18737489456691 109.33194174019688 l -37.258683981232856 18.482049489672615 a62.59081251132377,62.59081251132377 0 0,0 -0.4704645676548172,-0.9692963563708914 l 37.571301805502394 -17.837964177336442" fill="#40ff2d" stroke="none" /><path d="M 81.02952815118164 109.00673069616217 l -27.299444187561345 12.961129481214769 a51.22003524780525,51.22003524780525 0 0,0 -0.37128521386070173,-0.7997153195726899 l 27.518504018261876 -12.489294094363252" fill="#d2ff1c" stroke="none" /><path d="M 80.0844068197444 106.66101706037122 l -26.202259022819774 8.763670395933863 a48.628975672426,48.628975672426 0 0,0 -0.2586777813215373,-0.7961283490063189 l 26.34922905515756 -8.31134314694974" fill="#f7ff18" stroke="none" /><path d="M 79.18660465613746 102.79330883721812 l -25.96523605717874 3.484723282324014 a47.198030075931015,47.198030075931015 0 0,0 -0.1011352438066079,-0.8061474009926365 l 26.021372810232197 -3.037258127043969" fill="#fff216" stroke="none" /><path d="M 79.1416061653843 102.43462659150553 l -40.24155265982913 4.697061286976859 a61.51474972411181,61.51474972411181 0 0,0 -0.11370766704899161,-1.0527917766277557 l 40.31644262837918 -4.0036731884643215" fill="#4dff2c" stroke="none" /><path d="M 79.07016306316243 101.71520430193888 l -29.656778811823866 2.430378925225207 a50.75619719005814,50.75619719005814 0 0,0 -0.06386444756537754,-0.8713796464896948 l 29.69421981805358 -1.9195261422387515" fill="#d9ff1c" stroke="none" /><path d="M 79.0235259727143 100.99374915477108 l -39.78837687902506 1.8849529163868064 a60.83300116943652,60.83300116943652 0 0,0 -0.040549155649167376,-1.0463935311821244 l 39.81492816752543 -1.1997821381906852" fill="#55ff2b" stroke="none" /><line stroke="#e1ed5e" stroke-width="0.3" x1="15.007084014347285" x2="10.007500721073583" y1="101.09737516637583" y2="101.16192664675087" /><path d="M 14.007167355692545 101.11028546245083 a86.0,86.0 0 0,1 10.666146001902534,-42.60595125391555" fill="none" id="id34" stroke="none" /><text fill="#e1ed5e" style="font-size:6.75px; font-family:Arial;" text-anchor="middle"><textPath startOffset="22.20632615414155" xlink:href="#id34">October</textPath></text><path d="M 79.00175016825051 100.2711162175752 l -21.840075142481606 0.2819853374272632 a42.8418954754336,42.8418954754336 0 0,0 -0.0031737739482838403,-0.737473292864671 l 21.84169321371939 0.09399743364108315" fill="#ffb010" stroke="none" /><path d="M 79.01574976396665 99.18683210126434 l -52.12242637647248 -2.019814072783943 a73.161546950406,73.161546950406 0 0,0 0.05959667068461504,-1.2579915250509937 l 52.079936097554366 2.916716704457946" fill="#3dffac" stroke="none" /><path d="M 79.03285615573316 98.82574320788736 l -23.7751725464844 -1.3315193549355644 a44.81242896908405,44.81242896908405 0 0,0 0.049761874248369246,-0.7697941694953725 l 23.748730081231617 1.7405725886839487" fill="#ffce13" stroke="none" /><path d="M 79.12142395522702 97.74499172005258 l -51.69797197534068 -5.58368322681034 a72.99863291222638,72.99863291222638 0 0,0 0.14568318745580972,-1.2481245828980816 l 51.59419843488128 6.472751548033283" fill="#3dffaa" stroke="none" /><path d="M 79.26566170972629 96.67025291283419 l -41.00114394141933 -6.584412663578901 a62.52647703127831,62.52647703127831 0 0,0 0.179802740648449,-1.0612059533567404 l 40.881729339250654 7.289204405251469" fill="#41ff2d" stroke="none" /><path d="M 79.3925641242962 95.95851677861259 l -26.938368195859738 -5.283091197361551 a48.451534267784496,48.451534267784496 0 0,0 0.16755164440596562,-0.8170413228788382 l 26.843437255538777 5.746008176403792" fill="#faff18" stroke="none" /><path d="M 79.91906864156998 93.8553929516997 l -26.885156481642884 -8.226646417095028 a49.11564244889892,49.11564244889892 0 0,0 0.25433603702473256,-0.8063147409579826 l 26.739564960849947 8.688211324479424" fill="#f0ff19" stroke="none" /><path d="M 80.14247586403 93.16781622104843 l -59.572572407909995 -20.496551336854708 a84.0,84.0 0 0,0 0.4821876767607618,-1.3632094942935558 l 59.210931650339425 21.518958457574875" fill="#4dd2ff" stroke="none" /><path d="M 80.2630227832202 92.82701384747504 l -32.39812148014882 -11.774410751579355 a55.47136527597055,55.47136527597055 0 0,0 0.33387266859203923,-0.8946127607792964 l 32.19064422305516 12.330346649387993" fill="#99ff23" stroke="none" /><path d="M 80.52162464483688 92.15188598940014 l -40.850593045930296 -16.45928398951903 a65.04178676724919,65.04178676724919 0 0,0 0.4273502866691686,-1.0348626162900605 l 40.56122107237493 17.1600211762624" fill="#31ff3e" stroke="none" /><path d="M 80.803312248108 91.48605970444005 l -40.287338240493334 -17.867873712369107 a65.07187916920593,65.07187916920593 0 0,0 0.4629327608914337,-1.0200109745614618 l 39.973803162638546 18.55870669577264" fill="#31ff3e" stroke="none" /><path d="M 81.10775173730289 90.83032412892265 l -37.58627930431574 -18.243143623137726 a62.779668275328184,62.779668275328184 0 0,0 0.4802345285017982,-0.9681235051514747 l 37.26668476286053 18.887426716788163" fill="#3eff2d" stroke="none" /><line stroke="#e1ed5e" stroke-width="0.3" x1="26.266209847984243" x2="21.928928074336255" y1="57.711370442889674" y2="55.22380399835377" /><path d="M 25.398753493254645 57.213857153982495 a86.0,86.0 0 0,1 29.58750427330803,-30.492523968695096" fill="none" id="id35" stroke="none" /><text fill="#e1ed5e" style="font-size:6.75px; font-family:Arial;" text-anchor="middle"><textPath startOffset="21.46611528233685" xlink:href="#id35">November</textPath></text><path d="M 81.78341655067845 89.55222093294921 l -25.258620798086653 -14.486607237355033 a50.118030734768496,50.118030734768496 0 0,0 0.4356457926300428,-0.7446598762632465 l 25.005515330986285 14.919246525972172" fill="#e2ff1b" stroke="none" /><path d="M 81.96595687620814 89.24020034530311 l -9.57589778506748 -5.7133467505825495 a32.150791428524364,32.150791428524364 0 0,0 0.2876488467626019,-0.472819071906004 l 9.47613314001866 5.877333595695628" fill="#ff0000" stroke="none" /><path d="M 82.15384107792192 88.93136811851018 l -38.08530748038954 -23.621455487111344 a65.81588786586067,65.81588786586067 0 0,0 0.6054196792502136,-0.957628540723388 l 37.67306020489336 24.273531675548945" fill="#32ff49" stroke="none" /><path d="M 82.34701348167596 88.62581576622439 l -34.555518303661835 -22.264834965543812 a62.10725874194983,62.10725874194983 0 0,0 0.5867756715761461,-0.8936996041753508 l 34.16714599672777 22.856352633696833" fill="#46ff2c" stroke="none" /><path d="M 82.54541684631803 88.32363383020206 l -15.463404280583926 -10.344353057416397 a39.604368092500785,39.604368092500785 0 0,0 0.3839276379182256,-0.5633664344627575 l 15.28305217699696 10.60899751514957" fill="#ff7d0b" stroke="none" /><path d="M 82.95767976084542 87.72973835380427 l -42.2949220436252 -30.45182536755789 a73.11692718198738,73.11692718198738 0 0,0 0.7441819522337566,-1.0150633465183536 l 41.76447747887781 31.175351157747745" fill="#3dffac" stroke="none" /><path d="M 84.07557802195018 86.31012108654704 l -24.70615854595267 -21.23934666996835 a53.58073229786043,53.58073229786043 0 0,0 0.6072690591594385,-0.6942135116905884 l 24.336897623215386 21.66147573786188" fill="#b2ff20" stroke="none" /><path d="M 84.31358615837235 86.03803664274999 l -33.585507803488206 -29.89336084214139 a65.96219919951247,65.96219919951247 0 0,0 0.7621974816529966,-0.8416374962418899 l 33.065966681219166 30.467051125652837" fill="#32ff4b" stroke="none" /><path d="M 85.05521093208273 85.24692304244772 l -19.49249677515908 -19.242446561933203 a48.390311794838006,48.390311794838006 0 0,0 0.5902793095513763,-0.587744462606016 l 19.15838166544039 19.57512687518933" fill="#fbff18" stroke="none" /><path d="M 85.31137513191541 84.99185889309783 l -36.342570342170454 -37.13311686977118 a72.95816381993971,72.95816381993971 0 0,0 0.9050868662078017,-0.8706928481925116 l 35.698000232350225 37.753192804726005" fill="#3dffa9" stroke="none" /><path d="M 85.83668400450813 84.49514656593479 l -14.379802699226103 -15.74184557721104 a42.320985620871966,42.320985620871966 0 0,0 0.5420895298154021,-0.4866933322524609 l 14.106702181814729 15.98703791823278" fill="#ffa80f" stroke="none" /><path d="M 86.10567301691215 84.25364557470407 l -32.58403102880845 -36.92727987537489 a70.24777230576647,70.24777230576647 0 0,0 0.9135762975216317,-0.7922443626804277 l 31.943560932640043 37.482689231475" fill="#39ff86" stroke="none" /><path d="M 86.37877921826538 84.01681056812374 l -19.843237745808967 -23.284126504895614 a51.59255843064911,51.59255843064911 0 0,0 0.680880415145291,-0.5702177666117032 l 19.439499793704567 23.622245428901127" fill="#cdff1d" stroke="none" /><path d="M 87.22198572758235 83.33499621200491 l -10.049324287704414 -13.106263911669485 a37.51554032908932,37.51554032908932 0 0,0 0.5158455506598466,-0.38852417415719087 l 9.822232583286176 13.27730467533253" fill="#ff5b08" stroke="none" /><path d="M 87.51073957382395 83.11751280151077 l -31.940769779664663 -43.17626652935323 a74.70663614053004,74.70663614053004 0 0,0 1.040395506607231,-0.755891581495838 l 31.19282895670365 43.71967734566573" fill="#3fffc0" stroke="none" /><path d="M 88.39885842347998 82.49532879139004 l -17.415756867701557 -26.278198210701785 a52.52542289130828,52.52542289130828 0 0,0 0.7579492914614874,-0.49299130289772614 l 16.96084055045578 26.574088437759045" fill="#c0ff1e" stroke="none" /><path d="M 89.00827224532344 82.1063720568725 l -27.24894082579296 -44.35903252549073 a73.05985538517285,73.05985538517285 0 0,0 1.0772429839953466,-0.6490268445031881 l 26.481335775579964 44.82150597945254" fill="#3dffab" stroke="none" /><line stroke="#e1ed5e" stroke-width="0.3" x1="56.762969772571076" x2="54.21961505331055" y1="26.818313649435495" y2="22.513508569990535" /><path d="M 56.25429882871897 25.957352633546506 a86.0,86.0 0 0,1 42.265352541879196,-11.944610805530505" fill="none" id="id36" stroke="none" /><text fill="#e1ed5e" style="font-size:6.75px; font-family:Arial;" text-anchor="middle"><textPath startOffset="22.20632615414155" xlink:href="#id36">December</textPath></text><path d="M 89.63071344664047 81.73862282372117 l -8.017653352015376 -14.119909906663041 a37.237445028247656,37.237445028247656 0 0,0 0.5601148509013026,-0.31170330810309504 l 7.773414412042027 14.255828612326322" fill="#ff5708" stroke="none" /><path d="M 89.94658935756843 81.56283822128135 l -20.46532167260323 -37.53178497840027 a63.74885115214204,63.74885115214204 0 0,0 0.9679350937138209,-0.5170374053468214 l 19.816241532361104 37.87850111024884" fill="#33ff2f" stroke="none" /><path d="M 90.26544431104013 81.39251694778311 l -6.035254569666112 -11.536314620731904 a34.019633356941675,34.019633356941675 0 0,0 0.5212123927938783,-0.2669852315881914 l 5.83578168928347 11.6384923776326" fill="#ff2003" stroke="none" /><path d="M 90.58718382345135 81.22770947309562 l -12.981788692882038 -25.890010420985377 a49.962380379819805,49.962380379819805 0 0,0 0.7721060953240987,-0.3788691077555778 l 12.534211330547514 26.109634688875783" fill="#e4ff1a" stroke="none" /><path d="M 90.91171255644093 81.06846463323043 l -6.5902171644077505 -13.72788108843295 a36.22779305914713,36.22779305914713 0 0,0 0.5645011069277026,-0.2650408388360134 l 6.352937846180439 13.83928690990897" fill="#ff4606" stroke="none" /><path d="M 91.23893434514133 80.91482961587045 l -8.792379397337292 -19.15338447293024 a42.07505806005304,42.07505806005304 0 0,0 0.6608145959406744,-0.2964882469154526 l 8.461382682929845 19.301893050362224" fill="#ffa40f" stroke="none" /><path d="M 91.90106846888425 80.62456947434976 l -8.927460243908076 -21.357556248227176 a44.14832078796963,44.14832078796963 0 0,0 0.703674052300955,-0.2870463141367876 l 8.55850232201874 21.508063448547542" fill="#ffc412" stroke="none" /><path d="M 95.692805502759 79.44645832069477 l -9.54502621245522 -45.54799979741475 a67.53738079159324,67.53738079159324 0 0,0 1.1398817318642687,-0.22864955196139342 l 8.759578071123814 45.70555330545336" fill="#35ff61" stroke="none" /><path d="M 96.04723909329186 79.375362276772 l -9.905307757290691 -51.68371901384143 a73.6243473391201,73.6243473391201 0 0,0 1.24672271997173,-0.2278306082237584 l 9.014189916216068 51.84656510341593" fill="#3effb2" stroke="none" /><path d="M 96.75951476605007 79.25152402106235 l -8.017923225905898 -51.33789400141602 a72.96023915800569,72.96023915800569 0 0,0 1.2425164151546284,-0.18311462097913153 l 7.13303783032262 51.46830310655612" fill="#3dffaa" stroke="none" /><path d="M 97.47563105711357 79.15227682838746 l -6.2585123782575485 -51.68647550339238 a73.06400606130481,73.06400606130481 0 0,0 1.2498582739137367,-0.1404361400134753 l 5.3678874008340935 51.78654759687646" fill="#3dffab" stroke="none" /><path d="M 98.91598698831166 79.02799685794201 l -2.6847413324251574 -51.94070832373119 a73.01004727158927,73.01004727158927 0 0,0 1.2556308523725372,-0.0540701057928283 l 1.790269647663296 51.97922615604821" fill="#3dffaa" stroke="none" /><path d="M 99.63851952072746 79.00311137660856 l -0.6626179569238935 -38.488704754926566 a59.494408116877764,59.494408116877764 0 0,0 1.0240984361964198,-0.008814738559757541 l 9.428410737081249e-15 38.494408116877764" fill="#66ff29" stroke="none" /></svg>