<?xml version="1.0" encoding="utf-8" ?>
<svg baseProfile="full" height="200mm" version="1.1" viewBox="0,0,200,200" width="200mm" xmlns="http://www.w3.org/2000/svg" xmlns:ev="http://www.w3.org/2001/xml-events" xmlns:xlink="http://www.w3.org/1999/xlink"><defs /><rect fill="#1a1a1a" height="200" width="200" x="0" y="0" /><text alignment-baseline="middle" fill="#e1ed5e" style="dominant-baseline: central; font-size:9.0px; font-family:Arial;" text-anchor="middle" x="100.0" y="100.0">2024</text><line stroke="#e1ed5e" stroke-width="0.3" x1="100.0" x2="100.0" y1="15.0" y2="10.0" /><path d="M 100.0 14.0 a86.0,86.0 0 0,1 42.35913384403234,11.155469271406648" fill="none" id="id37" stroke="none" /><text fill="#e1ed5e" style="font-size:6.75px; font-family:Arial;" text-anchor="middle"><textPath startOffset="22.145653131862478" xlink:href="#id37">January</textPath></text><path d="M 100.36049292484886 79.00309439819443 l 0.7898736814978801 -46.006182048413955 a67.01296216398732,67.01296216398732 0 0,0 1.1500275880277235,0.029620631238898267 l -1.579514583596345 45.98584369982501" fill="#33ff56" stroke="none" /><path d="M 101.08105385017728 79.02784411241856 l 2.442120297913087 -47.37648136183163 a68.43938171790879,68.43938171790879 0 0,0 1.1727760975119894,0.07055129776636553 l -3.2550407475575387 47.32757808624057" fill="#36ff6a" stroke="none" /><path d="M 101.80034050326958 79.07731436759882 l 4.05646512239439 -47.14227357576088 a68.31647564201168,68.31647564201168 0 0,0 1.1675625207578628,0.1105693846259455 l -4.865127206537266 47.06569243562975" fill="#35ff69" stroke="none" /><path d="M 102.15924093988457 79.11130261209362 l 3.7634926779777254 -36.40837769409871 a57.60237483351779,57.60237483351779 0 0,0 0.9827077564468196,0.11011445384209395 l -4.387936336025342 36.33840747974965" fill="#82ff25" stroke="none" /><path d="M 103.23170211078529 79.25015418208739 l 7.2890162391808495 -46.80071304298261 a68.36492899885573,68.36492899885573 0 0,0 1.1580449165272624,0.19055585032678793 l -8.091338658761183 46.668691194160154" fill="#35ff69" stroke="none" /><path d="M 103.94208987418118 79.37332000966035 l 8.889723617298467 -46.51479040534754 a68.3566564745165,68.3566564745165 0 0,0 1.15068182386165,0.23016859149632082 l -9.686901926691075 46.35533241718836" fill="#35ff69" stroke="none" /><path d="M 104.64783097203109 79.52079915486377 l 10.564401487197403 -46.54870221548252 a68.7324654373558,68.7324654373558 0 0,0 1.1483815293406108,0.27101491404359257 l -11.361915170277898 46.3604911577927" fill="#36ff6e" stroke="none" /><path d="M 104.9986988182912 79.60360301121754 l 7.140368724118939 -29.13514105120704 a50.997355043238485,50.997355043238485 0 0,0 0.848485995791084,0.21568182215141757 l -7.639460013135418 29.008273997220353" fill="#dcff1b" stroke="none" /><path d="M 106.38641147887787 79.99465700312896 l 18.040064014459563 -56.5102435833316 a80.31990845823407,80.31990845823407 0 0,0 1.3098924933885687,0.4305876803477127 l -19.007479245495876 56.19223498158187" fill="#47fcff" stroke="none" /><path d="M 106.72888874123014 80.10723608172694 l 19.071474942128784 -56.38142688738697 a80.5196308315669,80.5196308315669 0 0,0 1.305546168343548,0.4541367278423445 l -20.03652688251735 56.04573172697604" fill="#48f9ff" stroke="none" /><path d="M 107.40779381753099 80.34994680014964 l 16.72558643492623 -44.36660513784894 a68.4145641448911,68.4145641448911 0 0,0 1.0953749578537277,0.423714565031995 l -17.484733655273487 44.072950684678915" fill="#36ff6a" stroke="none" /><path d="M 108.4095320186766 80.7573450057729 l 7.859770832289906 -17.98469381215875 a40.62715488941829,40.62715488941829 0 0,0 0.6366596263912312,0.2847697529012769 l -8.167343861536768 17.84712030834762" fill="#ff830c" stroke="none" /><path d="M 109.3889696526874 81.21577127319529 l 26.704907474504832 -53.4277038573316 a80.7299893076216,80.7299893076216 0 0,0 1.2342953313348162,0.6302399908819857 l -27.618130027553228 52.961405914776776" fill="#48f7ff" stroke="none" /><path d="M 109.71004243097381 81.37971332152246 l 27.446548118870325 -52.63237498095463 a80.35890750154759,80.35890750154759 0 0,0 1.2176715770555135,0.6483415291577246 l -28.346008511712398 52.15346298407433" fill="#48fbff" stroke="none" /><line stroke="#e1ed5e" stroke-width="0.3" x1="143.13028292997686" x2="145.6673583964461" y1="26.7553504044142" y2="22.446841604673864" /><path d="M 143.63769802327073 25.89364864446614 a86.0,86.0 0 0,1 29.32050498858742,28.57503671076993" fill="none" id="id38" stroke="none" /><text fill="#e1ed5e" style="font-size:6.75px; font-family:Arial;" text-anchor="middle"><textPath startOffset="20.669276256404974" xlink:href="#id38">February</textPath></text><path d="M 110.65571695917076 81.90426304109057 l 9.124990806488663 -15.496229302953996 a38.98328612429421,38.98328612429421 0 0,0 0.5737360372746874,0.3445120056081572 l -9.389659600320785 15.337303296809917" fill="#ff6809" stroke="none" /><path d="M 111.5731344415666 82.4767994020092 l 22.166517701629328 -33.56293303303101 a61.22219512652648,61.22219512652648 0 0,0 0.8719898006282746,0.5867136535310535 l -22.739403790354604 33.17746970544284" fill="#55ff2b" stroke="none" /><path d="M 112.16784306229584 82.88440491214696 l 22.970059212780992 -32.31026490210078 a60.6431184227804,60.6431184227804 0 0,0 0.8432829604567689,0.6104718312431933 l -23.521323183611727 31.911192299484515" fill="#5cff2a" stroke="none" /><path d="M 115.41159269507618 85.73525988315684 l 23.949561275685173 -22.167356370585093 a53.63392672907014,53.63392672907014 0 0,0 0.6196054255881284,0.6810549016160017 l -24.32656440211518 21.75296389341142" fill="#b8ff1f" stroke="none" /><path d="M 116.35404254752997 86.82634096563983 l 49.062127642589914 -39.52097710308052 a84.0,84.0 0 0,0 0.8949342774337627,1.130720224341287 l -49.73332835066524 38.672936934824556" fill="#4dd2ff" stroke="none" /><path d="M 116.57777611688842 87.10902102172516 l 31.202628074365485 -24.263352318035267 a60.52612129283986,60.52612129283986 0 0,0 0.6307629506357807,0.8256889501449701 l -31.614543002355575 23.724142454649414" fill="#5dff2a" stroke="none" /><path d="M 116.7966241395341 87.39550010848427 l 40.29185881774828 -30.23576201255415 a71.37494606914406,71.37494606914406 0 0,0 0.7269979436430128,0.9863123345495198 l -40.80495878097511 29.539643368735756" fill="#3aff92" stroke="none" /><path d="M 117.21940702142032 87.97951657250589 l 51.12719056015819 -35.690749748711305 a83.35237952315745,83.35237952315745 0 0,0 0.8089557336992207,1.1802905914021697 l -51.732336030672734 34.80782442223909" fill="#4cd9ff" stroke="none" /><line stroke="#e1ed5e" stroke-width="0.3" x1="172.87174338648825" x2="177.1583165268699" y1="56.24261187166439" y2="53.66864786411523" /><path d="M 173.72905801456457 55.72781907015455 a86.0,86.0 0 0,1 12.242430191666344,42.057860355516425" fill="none" id="id39" stroke="none" /><text fill="#e1ed5e" style="font-size:6.75px; font-family:Arial;" text-anchor="middle"><textPath startOffset="22.145653131862474" xlink:href="#id39">March</textPath></text><path d="M 118.00360718960297 89.18935116829356 l 30.82453685886892 -18.509248722870637 a56.95475435667524,56.95475435667524 0 0,0 0.4961200907112881,0.842520376239459 l -31.137730659709977 17.977377178337623" fill="#8bff24" stroke="none" /><path d="M 118.18653347947321 89.5 l 44.15920538964325 -25.49532911891051 a71.99065823782101,71.99065823782101 0 0,0 0.6087209015802874,1.0755515065821188 l -44.590359656244914 24.73352084222927" fill="#3bff9b" stroke="none" /><path d="M 118.36410011445183 89.81374322990088 l 32.19513464136552 -17.858098472616142 a57.81627867714646,57.81627867714646 0 0,0 0.47396863058124505,0.8720488960700713 l -32.496948621562105 17.302794743071466" fill="#80ff26" stroke="none" /><path d="M 118.70294669586156 90.45014215332178 l 30.61151972663738 -15.630460088134617 a55.371156840308394,55.371156840308394 0 0,0 0.42498704119463954,0.8502587699219095 l -30.875326681043756 15.102669462048958" fill="#a0ff22" stroke="none" /><path d="M 119.16976305983485 91.42560881287824 l 28.082018170134177 -12.560729538650126 a51.76315443921289,51.76315443921289 0 0,0 0.3558497933783426,0.8142539666344115 l -28.293501845529487 12.076813502239865" fill="#d2ff1c" stroke="none" /><path d="M 120.86939407059847 97.66154086499901 l 24.33203247226505 -2.726454990280275 a45.4843084657375,45.4843084657375 0 0,0 0.08028545211670433,0.7766889201381736 l -24.37525031686342 2.3083615478591697" fill="#ffd013" stroke="none" /><path d="M 120.93736805541906 98.37931529534042 l 16.65123442716139 -1.2889108544288477 a37.7010448517136,37.7010448517136 0 0,0 0.04440830997950347,0.6456870808176753 l -16.670906698305963 1.0028803494568381" fill="#ff5307" stroke="none" /><line stroke="#e1ed5e" stroke-width="0.3" x1="184.99686870605535" x2="189.99668451229388" y1="99.2704041080226" y2="99.22748670261217" /><path d="M 185.99683186730306 99.26182062694052 a86.0,86.0 0 0,1 -10.086455211305974,41.156179273409016" fill="none" id="id40" stroke="none" /><text fill="#e1ed5e" style="font-size:6.75px; font-family:Arial;" text-anchor="middle"><textPath startOffset="21.40746469413373" xlink:href="#id40">April</textPath></text><path d="M 120.98066250479742 100.90099992219065 l 24.77346755757899 1.063879290592813 a45.79630081224558,45.79630081224558 0 0,0 -0.04047174056399752,0.7851409548291691 l -24.75155422755842 -1.4889920387987126" fill="#ffd513" stroke="none" /><path d="M 120.592083275326 104.11899336999214 l 22.14298864497154 4.429217879559345 a43.581627867714644,43.581627867714644 0 0,0 -0.15303852404599758,0.7323447381294216 l -22.063692410101176 -4.808679068974175" fill="#ffb210" stroke="none" /><line stroke="#e1ed5e" stroke-width="0.3" x1="174.33088141563837" x2="178.70328620479359" y1="141.23008692659167" y2="143.65538615756765" /><path d="M 175.20536237346943 141.71514677278685 a86.0,86.0 0 0,1 -30.301960400862466,31.631185727798858" fill="none" id="id41" stroke="none" /><text fill="#e1ed5e" style="font-size:6.75px; font-family:Arial;" text-anchor="middle"><textPath startOffset="22.145653131862474" xlink:href="#id41">May</textPath></text><path d="M 115.16444852881244 114.52719865689866 l 21.14358045076012 20.255071784688578 a50.28000900410812,50.28000900410812 0 0,0 -0.602433995413803,0.6181503508328839 l -20.792759654195507 -20.6150448275892" fill="#e7ff1a" stroke="none" /><path d="M 114.91283532996324 114.78537596483092 l 18.129883226089184 17.974927890313595 a46.530191900054405,46.530191900054405 0 0,0 -0.5672430992531996,0.5623948967681055 l -17.818648206706023 -18.283502797310362" fill="#ffe015" stroke="none" /><path d="M 113.59037401385872 116.0094264158162 l 16.42729989928558 19.351317975500354 a46.383650040330906,46.383650040330906 0 0,0 -0.6114373717341071,0.5100828020242911 l -16.092688193389577 -19.630462961436514" fill="#ffde14" stroke="none" /><path d="M 112.45986205192187 116.90419585922612 l 10.02206803587308 13.596860084559017 a37.89131291151588,37.89131291151588 0 0,0 -0.5269039481916521,0.381437824816944 l -9.78718307730746 -13.766898680749039" fill="#ff5608" stroke="none" /><line stroke="#e1ed5e" stroke-width="0.3" x1="143.1302829299769" x2="145.66735839644613" y1="173.24464959558577" y2="177.55315839532614" /><path d="M 143.63769802327073 174.10635135553383 a86.0,86.0 0 0,1 -40.68552437913181,11.842963189579606" fill="none" id="id42" stroke="none" /><text fill="#e1ed5e" style="font-size:6.75px; font-family:Arial;" text-anchor="middle"><textPath startOffset="21.407464694133747" xlink:href="#id42">June</textPath></text><path d="M 107.74402155503746 119.51999308798841 l 10.7424711398642 27.07804477399206 a50.13110356600199,50.13110356600199 0 0,0 -0.8026413109856861,0.3104789017884615 l -10.276057566384985 -27.25846356391856" fill="#e9ff1a" stroke="none" /><path d="M 107.407793817531 119.65005319985036 l 5.223488896827743 13.85592488664907 a35.8078185672213,35.8078185672213 0 0,0 -0.5770359170832601,0.2118955815332531 l -4.984863828090356 -13.943551317191046" fill="#ff3304" stroke="none" /><path d="M 105.3480935250658 120.30758222061773 l 3.658862836531823 13.893298151684503 a35.36701119885948,35.36701119885948 0 0,0 -0.5884307860628379,0.14957680477648164 l -3.419826757243588 -13.954060188296255" fill="#ff2b04" stroke="none" /><path d="M 103.94208987418118 120.62667999033965 l 2.7284565474434497 14.276437592218242 a35.534825264026715,35.534825264026715 0 0,0 -0.60014134621346,0.10936574504018859 l -2.4829804676789324 -14.321171511189794" fill="#ff2e04" stroke="none" /><line stroke="#e1ed5e" stroke-width="0.3" x1="101.45913802915013" x2="101.54496967792366" y1="184.9874750549273" y2="189.98673829345242" /><path d="M 101.47630435890484 185.9873277026323 a86.0,86.0 0 0,1 -42.54439059252881,-10.42667462771756" fill="none" id="id43" stroke="none" /><text fill="#e1ed5e" style="font-size:6.75px; font-family:Arial;" text-anchor="middle"><textPath startOffset="22.145653131862474" xlink:href="#id43">July</textPath></text><line stroke="#e1ed5e" stroke-width="0.3" x1="58.13341422392154" x2="55.67067388415222" y1="173.97424548756322" y2="178.32567169271397" /><path d="M 57.64086615596768 174.84453072859336 a86.0,86.0 0 0,1 -31.369924170532247,-30.572349798747897" fill="none" id="id44" stroke="none" /><text fill="#e1ed5e" style="font-size:6.75px; font-family:Arial;" text-anchor="middle"><textPath startOffset="22.145653131862474" xlink:href="#id44">August</textPath></text><path d="M 89.03521579738668 117.91015095944536 l -6.318598561298867 10.320955888764773 a33.10152131910184,33.10152131910184 0 0,0 -0.4820777433815912,-0.30085216618585214 l 6.49484043347017 -10.210967925737373" fill="#ff0300" stroke="none" /><path d="M 88.72937992617639 117.7192867562869 l -9.920488205069036 15.596655207661941 a39.48436474141327,39.48436474141327 0 0,0 -0.568789887403917,-0.3686827330907582 l 10.186763724729964 -15.424058632867288" fill="#ff700a" stroke="none" /><path d="M 87.83215693770417 117.11559508785305 l -10.004934719270908 14.073193634955867 a38.26712187435517,38.26712187435517 0 0,0 -0.5321298221736174,-0.38522095457197997 l 10.24504555181848 -13.89937190901082" fill="#ff5c08" stroke="none" /><path d="M 87.54013794807813 116.9041958592261 l -8.233339598210431 11.170106423626384 a34.876568684462285,34.876568684462285 0 0,0 -0.4788835398672889,-0.3593631360779688 l 8.423876126988487 -11.0271242602844" fill="#ff2303" stroke="none" /><path d="M 86.96720088162412 116.46651593811092 l -7.391503283591444 9.338922937456067 a32.910071470108235,32.910071470108235 0 0,0 -0.4399751053707696,-0.3544128006831323 l 7.550729159317475 -9.210661842979524" fill="#ff0000" stroke="none" /><line stroke="#e1ed5e" stroke-width="0.3" x1="26.387840678322732" x2="22.057713659400548" y1="142.50000000000003" y2="145.00000000000006" /><path d="M 25.521815274538298 143.00000000000003 a86.0,86.0 0 0,1 -11.493303480769221,-40.785679425670985" fill="none" id="id45" stroke="none" /><text fill="#e1ed5e" style="font-size:6.75px; font-family:Arial;" text-anchor="middle"><textPath startOffset="21.40746469413373" xlink:href="#id45">September</textPath></text><path d="M 81.4637452351635 109.86951160357371 l -21.142366855898977 11.257119502217193 a44.95250332964415,44.95250332964415 0 0,0 -0.3568199802108765,-0.6842493605322904 l 21.3324949050848 -10.8925238985804" fill="#ffc812" stroke="none" /><path d="M 80.83023694016515 108.57439118712176 l -20.969546663250277 9.379411500606253 a43.97161830084976,43.97161830084976 0 0,0 -0.3022862778821584,-0.6916901608623378 l 21.127466823149405 -9.018059269968065" fill="#ffb911" stroke="none" /><path d="M 80.68587082218212 108.24405325689762 l -21.912219937992187 9.353023710389765 a44.824870096981755,44.824870096981755 0 0,0 -0.2960024287838423,-0.710298073180627 l 22.069548211312515 -8.975493127767857" fill="#ffc612" stroke="none" /><path d="M 80.05021161711548 106.5578916946017 l -27.749474917542432 9.121803580003562 a50.21028344182032,50.21028344182032 0 0,0 -0.2621342236213603,-0.8211317219549271 l 27.901973856941048 -8.644102824357242" fill="#e8ff1a" stroke="none" /><path d="M 79.48165901384964 104.47187691870673 l -25.377634068934675 5.530937229323559 a46.97336284679886,46.97336284679886 0 0,0 -0.16494872888574216,-0.7893393798303094 l 25.46884050864478 -5.094481398207841" fill="#ffe715" stroke="none" /><path d="M 79.13060592940153 102.33845913500099 l -25.63096228761041 2.8720027853980437 a46.791367311335804,46.791367311335804 0 0,0 -0.08259257327346646,-0.7990082244782519 l 25.67648725336554 -2.4315900386368603" fill="#ffe415" stroke="none" /><path d="M 79.0935383218832 101.97986365728391 l -25.329412301947702 2.3987216798851247 a46.44273949989683,46.44273949989683 0 0,0 -0.06835127761592134,-0.7943454538370436 l 25.366857202261365 -1.963555178672419" fill="#ffdf14" stroke="none" /><path d="M 79.03789590574601 101.26102812881392 l -35.63152680599572 2.143504171762239 a56.69594252377647,56.69594252377647 0 0,0 -0.05010412273822872,-0.9720065956976758 l 35.66307251819052 -1.5315257826878328" fill="#8eff24" stroke="none" /><path d="M 79.00696218219943 100.54070618675478 l -18.31874792639981 0.47182596551160877 a39.32482320058527,39.32482320058527 0 0,0 -0.011588778964151765,-0.6749882762677486 l 18.324148136962624 -0.15729077327480775" fill="#ff6e0a" stroke="none" /><line stroke="#e1ed5e" stroke-width="0.3" x1="15.003131293944662" x2="10.003315487706104" y1="100.72959589197737" y2="100.7725132973878" /><path d="M 14.003168132696942 100.73817937305945 a86.0,86.0 0 0,1 10.791469493833604,-42.45332614584628" fill="none" id="id46" stroke="none" /><text fill="#e1ed5e" style="font-size:6.75px; font-family:Arial;" text-anchor="middle"><textPath startOffset="22.145653131862435" xlink:href="#id46">October</textPath></text><path d="M 79.00696218219943 99.45929381324524 l -40.77947510147482 -1.050334623857183 a61.79299930593334,61.79299930593334 0 0,0 0.036414652753063194,-1.060172883034301 l 40.755435761724904 1.7502137714556223" fill="#4eff2c" stroke="none" /><path d="M 79.03789590574601 98.7389718711861 l -14.569938340700316 -0.8764913102279508 a35.596278301975275,35.596278301975275 0 0,0 0.041929091545564706,-0.6096397889018156 l 14.552745287989689 1.1264745232840914" fill="#ff2f04" stroke="none" /><path d="M 79.56144815229197 95.17655741523228 l -13.916188944010553 -3.2841826989685377 a35.29846742576301,35.29846742576301 0 0,0 0.14424041904707618,-0.5885501318757623 l 13.857760998447178 3.5225886554524175" fill="#ff2a04" stroke="none" /><path d="M 79.94057633289273 93.78553927170692 l -15.769012129611593 -4.885280266757546 a37.50841321352868,37.50841321352868 0 0,0 0.19582121635282376,-0.613407171172606 l 15.682826197481512 5.155256471621543" fill="#ff5007" stroke="none" /><path d="M 80.16572619554312 93.10060997987247 l -12.89642646851535 -4.486046575206067 a34.6543923164944,34.6543923164944 0 0,0 0.2002691027981067,-0.5601883237767349 l 12.817517195673299 4.706769855363723" fill="#ff1f03" stroke="none" /><path d="M 80.41425534168474 92.42381321644754 l -33.53667032125299 -12.97270452999403 a56.95829972424919,56.95829972424919 0 0,0 0.3605767541437104,-0.9088889666114176 l 33.30903489214315 13.54649451381903" fill="#8bff24" stroke="none" /><line stroke="#e1ed5e" stroke-width="0.3" x1="26.387840678322718" x2="22.05771365940052" y1="57.49999999999999" y2="54.99999999999999" /><path d="M 25.521815274538284 56.99999999999999 a86.0,86.0 0 0,1 29.574782752854787,-30.34633250058573" fill="none" id="id47" stroke="none" /><text fill="#e1ed5e" style="font-size:6.75px; font-family:Arial;" text-anchor="middle"><textPath startOffset="21.40746469413373" xlink:href="#id47">November</textPath></text><path d="M 81.99639281039701 89.18935116829357 l -15.363636501705516 -9.225422286142846 a38.92065129715433,38.92065129715433 0 0,0 0.3488625437326289,-0.5698407471492435 l 15.203005993517493 9.487800149416632" fill="#ff6709" stroke="none" /><line stroke="#e1ed5e" stroke-width="0.3" x1="56.869717070023135" x2="54.33264160355391" y1="26.7553504044142" y2="22.446841604673864" /><path d="M 56.362301976729285 25.89364864446614 a86.0,86.0 0 0,1 42.16139366436587,-11.88097634709845" fill="none" id="id48" stroke="none" /><text fill="#e1ed5e" style="font-size:6.75px; font-family:Arial;" text-anchor="middle"><textPath startOffset="22.145653131862474" xlink:href="#id48">December</textPath></text></svg>