<?xml version="1.0" encoding="utf-8" ?>
<svg baseProfile="full" height="200mm" version="1.1" viewBox="0,0,200,200" width="200mm" xmlns="http://www.w3.org/2000/svg" xmlns:ev="http://www.w3.org/2001/xml-events" xmlns:xlink="http://www.w3.org/1999/xlink"><defs /><rect fill="#1a1a1a" height="200" width="200" x="0" y="0" /><text alignment-baseline="middle" fill="#e1ed5e" style="dominant-baseline: central; font-size:9.0px; font-family:Arial;" text-anchor="middle" x="100.0" y="100.0">2025</text><line stroke="#e1ed5e" stroke-width="0.3" x1="100.0" x2="100.0" y1="15.0" y2="10.0" /><path d="M 100.0 14.0 a86.0,86.0 0 0,1 42.46469731375804,11.215312516191453" fill="none" id="id49" stroke="none" /><text fill="#e1ed5e" style="font-size:6.75px; font-family:Arial;" text-anchor="middle"><textPath startOffset="22.20632615414155" xlink:href="#id49">January</textPath></text><path d="M 100.36148047927253 79.00311137660856 l 1.0823397026849069 -62.8685848698793 a83.87790090940715,83.87790090940715 0 0,0 1.4433923468773295,0.03727856589762181 l -2.164358684757104 62.84063951183931" fill="#4dd3ff" stroke="none" /><path d="M 101.08401301168833 79.027996857942 l 2.4368071654438905 -47.14401670389924 a68.20695224370124,68.20695224370124 0 0,0 1.1719836620243613,0.07069725504186233 l -3.247952876307864 47.09508617947708" fill="#33ff4e" stroke="none" /><path d="M 101.80526077348638 79.07773832637324 l 2.699951708932365 -31.29137739549129 a52.407642995577206,52.407642995577206 0 0,0 0.8981044696444381,0.08528584107698979 l -3.238181305667047 31.24026600989912" fill="#faff18" stroke="none" /><path d="M 102.52436894288641 79.15227682838746 l 7.57310682865922 -62.54316951483763 a84.0,84.0 0 0,0 1.4339410859686157,0.1861667073434532 l -8.648562643135682 62.40354448433004" fill="#4dd2ff" stroke="none" /><line stroke="#e1ed5e" stroke-width="0.3" x1="143.23703022742887" x2="145.7803849466894" y1="26.81831364943548" y2="22.513508569990506" /><path d="M 143.74570117128098 25.957352633546492 a86.0,86.0 0 0,1 28.547481713284135,27.462654790039103" fill="none" id="id50" stroke="none" /><text fill="#e1ed5e" style="font-size:6.75px; font-family:Arial;" text-anchor="middle"><textPath startOffset="19.985693538727396" xlink:href="#id50">February</textPath></text><line stroke="#e1ed5e" stroke-width="0.3" x1="172.23445277983987" x2="176.4835382374775" y1="55.19839476539836" y2="52.563006222186495" /><path d="M 173.08426987136738 54.67131705675599 a86.0,86.0 0 0,1 12.851231095245387,41.99856678651699" fill="none" id="id51" stroke="none" /><text fill="#e1ed5e" style="font-size:6.75px; font-family:Arial;" text-anchor="middle"><textPath startOffset="22.20632615414155" xlink:href="#id51">March</textPath></text><path d="M 120.53481517161879 95.60439243477599 l 30.85579716464928 -6.604879289851347 a52.55478805347116,52.55478805347116 0 0,0 0.1817412243562469,0.8862347540431637 l -30.964917684920525 6.072768879644771" fill="#f8ff18" stroke="none" /><path d="M 120.6074358757038 95.95851677861258 l 18.553143952697194 -3.6386001849563216 a39.90657456641654,39.90657456641654 0 0,0 0.12639794850106748,0.6752228950867961 l -18.61302762510812 3.3186992124069628" fill="#ff2503" stroke="none" /><path d="M 120.67395015179393 96.31383870115 l 39.03064668497378 -6.959156727324983 a60.6462008646822,60.6462008646822 0 0,0 0.1743957702899428,1.0292937082297646 l -39.14465431678395 6.28627723077938" fill="#7cff26" stroke="none" /><path d="M 120.87857604477298 97.74499172005257 l 46.93399725057539 -5.0691461038394845 a68.20695224370124,68.20695224370124 0 0,0 0.11602611345714144,1.1683671284825417 l -47.014300489714756 4.260503444652508" fill="#33ff4e" stroke="none" /><line stroke="#e1ed5e" stroke-width="0.3" x1="184.98032266829074" x2="189.97916517819016" y1="98.17113171792111" y2="98.06355123074" /><path d="M 185.9800911702706 98.14961562048488 a86.0,86.0 0 0,1 -9.607161424134198,41.387399972396054" fill="none" id="id52" stroke="none" /><text fill="#e1ed5e" style="font-size:6.75px; font-family:Arial;" text-anchor="middle"><textPath startOffset="21.466115282336823" xlink:href="#id52">April</textPath></text><path d="M 120.99513854157772 99.54816195383933 l 25.642698280854056 -0.5518585488999554 a46.648635889280925,46.648635889280925 0 0,0 0.010367088174454902,0.8029424040435466 l -25.648398376146226 0.11037988679594615" fill="#ffa20f" stroke="none" /><path d="M 120.9764740272857 100.99374915477107 l 31.29427653794883 1.4825494894092395 a52.329374347761274,52.329374347761274 0 0,0 -0.05036988625432246,0.8993881556466001 l -31.26412030080698 -2.021009361391263" fill="#fcff18" stroke="none" /><path d="M 120.95626037817324 101.35467743843564 l 33.165211257441435 2.143901756355446 a54.23443323560105,54.23443323560105 0 0,0 -0.06824096976065712,0.9310938146812651 l -33.123393729016435 -2.7144687075334812" fill="#ddff1b" stroke="none" /><path d="M 120.32669344350535 105.2749913415812 l 26.09752282494679 6.772582433091093 a47.961983799632264,47.961983799632264 0 0,0 -0.21425742679561996,0.7973315908256711 l -25.977077321809393 -7.220804957092312" fill="#ffb911" stroke="none" /><path d="M 119.9155931802556 106.66101706037122 l 24.23213940376526 8.104739463035294 a46.55158276598917,46.55158276598917 0 0,0 -0.2607091889231145,0.7577429382767994 l -24.089039383898918 -8.520655104401394" fill="#ffa00e" stroke="none" /><line stroke="#e1ed5e" stroke-width="0.3" x1="174.80103733775053" x2="179.2010983576182" y1="140.37084112569926" y2="142.7455964860345" /><path d="M 175.68104954172406 140.8457921977663 a86.0,86.0 0 0,1 -30.038265399797805,32.042727171017184" fill="none" id="id53" stroke="none" /><text fill="#e1ed5e" style="font-size:6.75px; font-family:Arial;" text-anchor="middle"><textPath startOffset="22.206326154141568" xlink:href="#id53">May</textPath></text><path d="M 112.63410532772338 116.77436683061366 l 10.216277985027812 13.564204992682276 a37.981165830144604,37.981165830144604 0 0,0 -0.5256141729173757,0.388836799464101 l -9.981278841691871 -13.738051740886146" fill="#ff0000" stroke="none" /><path d="M 112.34349029814194 116.9893568818739 l 18.425065339682877 25.359926817039565 a52.34659345028078,52.34659345028078 0 0,0 -0.7335319967915334,0.523355603228298 l -17.98580601504246 -25.673326682112084" fill="#fbff18" stroke="none" /><path d="M 111.45004920935366 117.60387380957326 l 10.07732925121792 15.49338603113091 a39.48235849525419,39.48235849525419 0 0,0 -0.5729044348386154,0.36565471634917396 l -9.809143014332374 -15.664555176303892" fill="#ff1d03" stroke="none" /><line stroke="#e1ed5e" stroke-width="0.3" x1="143.8653032363475" x2="146.44561519142675" y1="172.8068346515853" y2="177.08958963109032" /><path d="M 144.38136562736335 173.6633856474863 a86.0,86.0 0 0,1 -40.68145358897372,12.25698825130547" fill="none" id="id54" stroke="none" /><text fill="#e1ed5e" style="font-size:6.75px; font-family:Arial;" text-anchor="middle"><textPath startOffset="21.466115282336833" xlink:href="#id54">June</textPath></text><line stroke="#e1ed5e" stroke-width="0.3" x1="102.19456741930631" x2="102.32365962044197" y1="184.97166512339345" y2="189.96999836594603" /><path d="M 102.22038585953345 185.97133177190398 a86.0,86.0 0 0,1 -42.740103519485714,-10.115201625700543" fill="none" id="id55" stroke="none" /><text fill="#e1ed5e" style="font-size:6.75px; font-family:Arial;" text-anchor="middle"><textPath startOffset="22.20632615414155" xlink:href="#id55">July</textPath></text><line stroke="#e1ed5e" stroke-width="0.3" x1="58.666819895761336" x2="56.23545636021788" y1="174.27360380694188" y2="178.64263932499728" /><path d="M 58.180547188652646 175.14741091055294 a86.0,86.0 0 0,1 -31.652253787137756,-30.449443065178592" fill="none" id="id56" stroke="none" /><text fill="#e1ed5e" style="font-size:6.75px; font-family:Arial;" text-anchor="middle"><textPath startOffset="22.20632615414155" xlink:href="#id56">August</textPath></text><line stroke="#e1ed5e" stroke-width="0.3" x1="26.63291911575756" x2="22.317208475507996" y1="142.92168965132927" y2="145.44649492493687" /><path d="M 25.769776987707644 143.4266507060508 a86.0,86.0 0 0,1 -11.730757126820373,-40.83630448921669" fill="none" id="id57" stroke="none" /><text fill="#e1ed5e" style="font-size:6.75px; font-family:Arial;" text-anchor="middle"><textPath startOffset="21.46611528233685" xlink:href="#id57">September</textPath></text><line stroke="#e1ed5e" stroke-width="0.3" x1="15.007084014347285" x2="10.007500721073583" y1="101.09737516637583" y2="101.16192664675087" /><path d="M 14.007167355692545 101.11028546245083 a86.0,86.0 0 0,1 10.666146001902534,-42.60595125391555" fill="none" id="id58" stroke="none" /><text fill="#e1ed5e" style="font-size:6.75px; font-family:Arial;" text-anchor="middle"><textPath startOffset="22.20632615414155" xlink:href="#id58">October</textPath></text><line stroke="#e1ed5e" stroke-width="0.3" x1="26.266209847984243" x2="21.928928074336255" y1="57.711370442889674" y2="55.22380399835377" /><path d="M 25.398753493254645 57.213857153982495 a86.0,86.0 0 0,1 29.58750427330803,-30.492523968695096" fill="none" id="id59" stroke="none" /><text fill="#e1ed5e" style="font-size:6.75px; font-family:Arial;" text-anchor="middle"><textPath startOffset="21.46611528233685" xlink:href="#id59">November</textPath></text><line stroke="#e1ed5e" stroke-width="0.3" x1="56.762969772571076" x2="54.21961505331055" y1="26.818313649435495" y2="22.513508569990535" /><path d="M 56.25429882871897 25.957352633546506 a86.0,86.0 0 0,1 42.265352541879196,-11.944610805530505" fill="none" id="id60" stroke="none" /><text fill="#e1ed5e" style="font-size:6.75px; font-family:Arial;" text-anchor="middle"><textPath startOffset="22.20632615414155" xlink:href="#id60">December</textPath></text></svg>